<svg width="28" height="28" viewBox="0 0 28 28" fill="none" xmlns="http://www.w3.org/2000/svg">
<path d="M6.83008 22.9531H20.1699C21.1921 22.9531 21.957 22.6992 22.4648 22.1914C22.9727 21.6901 23.2266 20.9349 23.2266 19.9258V8.00195C23.2266 6.99284 22.9727 6.23763 22.4648 5.73633C21.957 5.22852 21.1921 4.97461 20.1699 4.97461H6.83008C5.80794 4.97461 5.03971 5.22852 4.52539 5.73633C4.01758 6.23763 3.76367 6.99284 3.76367 8.00195V19.9258C3.76367 20.9349 4.01758 21.6901 4.52539 22.1914C5.03971 22.6992 5.80794 22.9531 6.83008 22.9531ZM6.68359 21.3809C6.25391 21.3809 5.92188 21.2637 5.6875 21.0293C5.45312 20.8014 5.33594 20.4629 5.33594 20.0137V10.8047C5.33594 10.3555 5.45312 10.0169 5.6875 9.78906C5.92188 9.55469 6.25391 9.4375 6.68359 9.4375H20.2969C20.7331 9.4375 21.0684 9.55469 21.3027 9.78906C21.5371 10.0169 21.6543 10.3555 21.6543 10.8047V20.0137C21.6543 20.4629 21.5371 20.8014 21.3027 21.0293C21.0684 21.2637 20.7331 21.3809 20.2969 21.3809H6.68359ZM11.5957 12.9531H12.1719C12.3411 12.9531 12.4583 12.9206 12.5234 12.8555C12.5951 12.7904 12.6309 12.6732 12.6309 12.5039V11.9277C12.6309 11.7585 12.5951 11.6445 12.5234 11.5859C12.4583 11.5208 12.3411 11.4883 12.1719 11.4883H11.5957C11.4264 11.4883 11.306 11.5208 11.2344 11.5859C11.1693 11.6445 11.1367 11.7585 11.1367 11.9277V12.5039C11.1367 12.6732 11.1693 12.7904 11.2344 12.8555C11.306 12.9206 11.4264 12.9531 11.5957 12.9531ZM14.8379 12.9531H15.4141C15.5898 12.9531 15.7103 12.9206 15.7754 12.8555C15.8405 12.7904 15.873 12.6732 15.873 12.5039V11.9277C15.873 11.7585 15.8405 11.6445 15.7754 11.5859C15.7103 11.5208 15.5898 11.4883 15.4141 11.4883H14.8379C14.6686 11.4883 14.5514 11.5208 14.4863 11.5859C14.4212 11.6445 14.3887 11.7585 14.3887 11.9277V12.5039C14.3887 12.6732 14.4212 12.7904 14.4863 12.8555C14.5514 12.9206 14.6686 12.9531 14.8379 12.9531ZM18.0898 12.9531H18.6562C18.832 12.9531 18.9525 12.9206 19.0176 12.8555C19.0827 12.7904 19.1152 12.6732 19.1152 12.5039V11.9277C19.1152 11.7585 19.0827 11.6445 19.0176 11.5859C18.9525 11.5208 18.832 11.4883 18.6562 11.4883H18.0898C17.9141 11.4883 17.7936 11.5208 17.7285 11.5859C17.6634 11.6445 17.6309 11.7585 17.6309 11.9277V12.5039C17.6309 12.6732 17.6634 12.7904 17.7285 12.8555C17.7936 12.9206 17.9141 12.9531 18.0898 12.9531ZM8.35352 16.1465H8.92969C9.09896 16.1465 9.21615 16.1139 9.28125 16.0488C9.34635 15.9837 9.37891 15.8665 9.37891 15.6973V15.1309C9.37891 14.9551 9.34635 14.8379 9.28125 14.7793C9.21615 14.7142 9.09896 14.6816 8.92969 14.6816H8.35352C8.17773 14.6816 8.05729 14.7142 7.99219 14.7793C7.92708 14.8379 7.89453 14.9551 7.89453 15.1309V15.6973C7.89453 15.8665 7.92708 15.9837 7.99219 16.0488C8.05729 16.1139 8.17773 16.1465 8.35352 16.1465ZM11.5957 16.1465H12.1719C12.3411 16.1465 12.4583 16.1139 12.5234 16.0488C12.5951 15.9837 12.6309 15.8665 12.6309 15.6973V15.1309C12.6309 14.9551 12.5951 14.8379 12.5234 14.7793C12.4583 14.7142 12.3411 14.6816 12.1719 14.6816H11.5957C11.4264 14.6816 11.306 14.7142 11.2344 14.7793C11.1693 14.8379 11.1367 14.9551 11.1367 15.1309V15.6973C11.1367 15.8665 11.1693 15.9837 11.2344 16.0488C11.306 16.1139 11.4264 16.1465 11.5957 16.1465ZM14.8379 16.1465H15.4141C15.5898 16.1465 15.7103 16.1139 15.7754 16.0488C15.8405 15.9837 15.873 15.8665 15.873 15.6973V15.1309C15.873 14.9551 15.8405 14.8379 15.7754 14.7793C15.7103 14.7142 15.5898 14.6816 15.4141 14.6816H14.8379C14.6686 14.6816 14.5514 14.7142 14.4863 14.7793C14.4212 14.8379 14.3887 14.9551 14.3887 15.1309V15.6973C14.3887 15.8665 14.4212 15.9837 14.4863 16.0488C14.5514 16.1139 14.6686 16.1465 14.8379 16.1465ZM18.0898 16.1465H18.6562C18.832 16.1465 18.9525 16.1139 19.0176 16.0488C19.0827 15.9837 19.1152 15.8665 19.1152 15.6973V15.1309C19.1152 14.9551 19.0827 14.8379 19.0176 14.7793C18.9525 14.7142 18.832 14.6816 18.6562 14.6816H18.0898C17.9141 14.6816 17.7936 14.7142 17.7285 14.7793C17.6634 14.8379 17.6309 14.9551 17.6309 15.1309V15.6973C17.6309 15.8665 17.6634 15.9837 17.7285 16.0488C17.7936 16.1139 17.9141 16.1465 18.0898 16.1465ZM8.35352 19.3398H8.92969C9.09896 19.3398 9.21615 19.3105 9.28125 19.252C9.34635 19.1868 9.37891 19.0664 9.37891 18.8906V18.3242C9.37891 18.1484 9.34635 18.0312 9.28125 17.9727C9.21615 17.9076 9.09896 17.875 8.92969 17.875H8.35352C8.17773 17.875 8.05729 17.9076 7.99219 17.9727C7.92708 18.0312 7.89453 18.1484 7.89453 18.3242V18.8906C7.89453 19.0664 7.92708 19.1868 7.99219 19.252C8.05729 19.3105 8.17773 19.3398 8.35352 19.3398ZM11.5957 19.3398H12.1719C12.3411 19.3398 12.4583 19.3105 12.5234 19.252C12.5951 19.1868 12.6309 19.0664 12.6309 18.8906V18.3242C12.6309 18.1484 12.5951 18.0312 12.5234 17.9727C12.4583 17.9076 12.3411 17.875 12.1719 17.875H11.5957C11.4264 17.875 11.306 17.9076 11.2344 17.9727C11.1693 18.0312 11.1367 18.1484 11.1367 18.3242V18.8906C11.1367 19.0664 11.1693 19.1868 11.2344 19.252C11.306 19.3105 11.4264 19.3398 11.5957 19.3398ZM14.8379 19.3398H15.4141C15.5898 19.3398 15.7103 19.3105 15.7754 19.252C15.8405 19.1868 15.873 19.0664 15.873 18.8906V18.3242C15.873 18.1484 15.8405 18.0312 15.7754 17.9727C15.7103 17.9076 15.5898 17.875 15.4141 17.875H14.8379C14.6686 17.875 14.5514 17.9076 14.4863 17.9727C14.4212 18.0312 14.3887 18.1484 14.3887 18.3242V18.8906C14.3887 19.0664 14.4212 19.1868 14.4863 19.252C14.5514 19.3105 14.6686 19.3398 14.8379 19.3398Z" fill="white"/>
</svg>
