<svg width="68" height="58" viewBox="0 0 68 58" fill="none" xmlns="http://www.w3.org/2000/svg">
<g clip-path="url(#clip0_44_6996)">
<path d="M66.6372 17.5352H58.4526L58.4595 12.1394H66.6338C67.3838 12.1394 67.9921 11.536 67.9921 10.7921C67.9921 10.0482 67.3838 9.44489 66.6338 9.44489H58.4595C58.4595 6.92524 57.471 4.55642 55.6772 2.77381C53.8799 0.98777 51.4846 0.00390625 48.9408 0.00390625H18.964C13.7552 0.00390625 9.51778 4.24104 9.51778 9.44489H1.35736C0.607339 9.44489 -0.000976562 10.0482 -0.000976562 10.7921C-0.000976562 11.536 0.607339 12.1394 1.35736 12.1394H17.6782V17.5352H1.35736C0.607339 17.5352 -0.000976562 18.1385 -0.000976562 18.8824C-0.000976562 19.6263 0.607339 20.2297 1.35736 20.2297H17.6782V57.997H58.3973L58.4111 48.8886C58.4388 48.7789 58.4803 48.6726 58.4803 48.5526C58.4803 48.4327 58.4422 48.3298 58.4146 48.2235L58.4561 20.2263H66.6441C67.3942 20.2263 68.0025 19.6229 68.0025 18.879C68.0025 18.1351 67.3942 17.5318 66.6441 17.5318L66.6372 17.5352ZM18.964 2.69839H48.9442C50.7623 2.69839 52.4697 3.40115 53.7555 4.6764C55.0412 5.95166 55.7463 7.64857 55.7428 9.45175L55.691 47.2088H20.3983V10.9327C20.3983 10.8984 20.3914 10.8676 20.3914 10.8333C20.3914 10.8196 20.3983 10.8058 20.3983 10.7921C20.3983 10.7579 20.3811 10.727 20.3776 10.6927C20.3257 8.96153 19.7209 7.15149 18.7497 5.91395C18.2865 5.32432 17.4328 5.22147 16.8418 5.67741C16.2507 6.13677 16.1436 6.98351 16.6033 7.56972C16.9904 8.05994 17.2807 8.73185 17.4639 9.44146H12.2345C12.2345 5.72197 15.2518 2.69839 18.9605 2.69839H18.964ZM20.3983 55.306V49.9102H55.6875L55.6806 55.306H20.3983Z" fill="white"/>
<path d="M14.9578 32.3719C15.7078 32.3719 16.3162 31.7685 16.3162 31.0246C16.3162 30.2807 15.7078 29.6774 14.9578 29.6774H12.2377V22.8829C12.2377 22.139 11.6294 21.5356 10.8793 21.5356C10.1293 21.5356 9.521 22.139 9.521 22.8829V40.4656H14.9613C15.7113 40.4656 16.3196 39.8623 16.3196 39.1184C16.3196 38.3745 15.7113 37.7711 14.9613 37.7711H12.2411V32.3753H14.9613L14.9578 32.3719Z" fill="white"/>
</g>
<defs>
<clipPath id="clip0_44_6996">
<rect width="68" height="58" fill="white" transform="translate(-0.000976562 0.000488281)"/>
</clipPath>
</defs>
</svg>
