<svg width="112" height="71" viewBox="0 0 112 71" fill="none" xmlns="http://www.w3.org/2000/svg">
<g clip-path="url(#clip0_44_5577)">
<path d="M50.5755 29.4931C50.1299 29.4931 49.6802 29.3598 49.2893 29.0889C48.2762 28.3804 48.0366 26.9968 48.747 25.9925L57.4271 13.7987C58.1417 12.7985 59.5372 12.561 60.5502 13.2653C61.559 13.9737 61.8028 15.3573 61.0882 16.3575L52.4082 28.5554C51.971 29.1681 51.2817 29.4931 50.5755 29.4931Z" fill="white"/>
<path d="M60.5966 34.4228C60.1511 34.4228 59.7013 34.2894 59.3062 34.0186C58.2974 33.3101 58.0536 31.9265 58.7681 30.9222L67.4482 18.7284C68.1628 17.7282 69.5583 17.4906 70.5671 18.1949C71.5802 18.9034 71.8197 20.287 71.1094 21.2913L62.4293 33.4893C61.9922 34.1019 61.3028 34.427 60.5966 34.427V34.4228Z" fill="white"/>
<path d="M70.6132 39.3442C70.1677 39.3442 69.7179 39.2109 69.3228 38.94C68.314 38.2315 68.0702 36.8438 68.7847 35.8436L77.4648 23.654C78.1794 22.658 79.5749 22.4163 80.5879 23.1205C81.5968 23.829 81.8406 25.2167 81.126 26.2169L72.4459 38.4066C72.0088 39.0192 71.3152 39.3442 70.6132 39.3442Z" fill="white"/>
<path d="M45.2328 17.2989C44.9091 17.2989 44.5855 17.2281 44.2786 17.0781C41.2185 15.6236 34.3375 6.33033 32.3031 3.51317C31.5801 2.51716 31.8113 1.12942 32.8159 0.412624C33.8247 -0.308336 35.2203 -0.0749616 35.9433 0.921047C39.7852 6.23448 44.8293 12.3856 46.2164 13.0732C47.3177 13.6191 47.7843 14.9485 47.242 16.0445C46.8511 16.8322 46.0651 17.2948 45.237 17.2948L45.2328 17.2989Z" fill="white"/>
<path d="M53.3834 70.9998C41.4415 70.9998 18.7221 68.366 3.92606 64.4403C1.27791 63.7402 -0.319389 61.3606 0.0505117 58.656C0.420412 55.9388 2.59358 54.0552 5.34261 54.0552H5.38465L72.2736 54.5469C73.5094 54.5552 74.5056 55.5554 74.4972 56.7848C74.4888 58.0058 73.4884 58.9894 72.2568 58.9894H72.24L5.35522 58.4976C4.8424 58.5893 4.54396 58.906 4.49773 59.2519C4.43047 59.727 4.63223 60.0312 5.09041 60.1521C19.5417 63.9819 41.7316 66.5574 53.3918 66.5574C71.6683 66.5574 98.0237 63.2734 104.606 59.0394C106.99 57.5058 107.998 54.9553 107.309 52.2132C106.687 49.7502 104.421 46.7414 100.075 46.3746C90.0624 45.5328 83.131 38.9983 82.8452 38.7233C81.9583 37.869 81.9288 36.4687 82.7863 35.5894C83.6396 34.7059 85.0604 34.6809 85.9515 35.5269C86.0104 35.5852 92.0675 41.2487 100.453 41.953C105.964 42.4198 110.361 46.0246 111.651 51.138C112.811 55.7346 111.046 60.1937 107.04 62.765C98.7971 68.066 70.0836 70.9998 53.3876 70.9998H53.3834Z" fill="white"/>
<path d="M3.5307 49.734C2.39998 49.734 1.42899 48.888 1.30709 47.7503C0.991838 44.829 -1.57645 18.9786 5.43485 11.1856C6.22509 10.3062 7.57018 10.1979 8.49914 10.9272C8.60422 11.0064 18.9026 18.9578 35.5061 18.9578C36.7419 18.9578 37.7465 19.9496 37.7465 21.179C37.7465 22.4084 36.7461 23.4002 35.5061 23.4002C21.4793 23.4002 11.6853 18.2993 7.69208 15.7697C4.11497 22.8001 5.02712 40.4949 5.75851 47.2794C5.88882 48.4963 4.99769 49.5923 3.7703 49.7215C3.69043 49.7298 3.61057 49.734 3.5307 49.734Z" fill="white"/>
</g>
<defs>
<clipPath id="clip0_44_5577">
<rect width="112" height="71" fill="white"/>
</clipPath>
</defs>
</svg>
