<svg width="123" height="67" viewBox="0 0 123 67" fill="none" xmlns="http://www.w3.org/2000/svg">
<g clip-path="url(#clip0_44_5572)">
<path d="M89.4861 67.0001H31.6019C30.5969 67.0001 29.7812 66.1811 29.7812 65.1719C29.7812 64.1627 30.5969 63.3437 31.6019 63.3437H89.4861C100.985 63.3437 110.339 53.9504 110.339 42.4034V29.6535C110.339 28.6517 111.144 27.8363 112.142 27.8253L118.849 27.7522L110.78 16.5051L102.19 27.8071L103.683 27.7998H103.69C104.692 27.7998 105.507 28.6115 105.511 29.6206C105.515 30.6298 104.706 31.4525 103.698 31.4562L101.102 31.4671H101.087C99.9364 31.4671 98.8877 30.8346 98.3488 29.8108C97.8063 28.7833 97.8755 27.5511 98.5309 26.5931C98.5491 26.5675 98.5673 26.5419 98.5855 26.5164L108.264 13.7811C108.821 12.9986 109.717 12.5123 110.674 12.4758C111.654 12.4392 112.601 12.878 113.209 13.6421C113.227 13.6641 113.245 13.6897 113.263 13.7153L122.352 26.3811C123.069 27.3135 123.2 28.5457 122.698 29.6133C122.188 30.6956 121.128 31.3794 119.934 31.394L113.981 31.4562V42.3961C113.981 55.9577 102.991 66.9928 89.4861 66.9928V67.0001Z" fill="white"/>
<path d="M12.2128 54.5207C11.277 54.5207 10.3776 54.0892 9.78775 53.3506C9.76954 53.3287 9.75134 53.3031 9.73313 53.2775L0.648315 40.6117C-0.0690026 39.6793 -0.200086 38.4471 0.302401 37.3795C0.815811 36.2972 1.87176 35.6134 3.06608 35.6024L9.01945 35.5403V24.6003C9.01945 11.035 20.0086 0 33.5175 0H91.3981C92.4031 0 93.2188 0.819035 93.2188 1.8282C93.2188 2.83737 92.4031 3.65641 91.3981 3.65641H33.5175C22.0186 3.65641 12.6643 13.0497 12.6643 24.5966V37.3465C12.6643 38.3484 11.8596 39.1638 10.8619 39.1747L4.1548 39.2479L12.2237 50.495L20.8133 39.193L19.3204 39.2003H19.3131C18.3118 39.2003 17.4962 38.3886 17.4925 37.3795C17.4889 36.3703 18.2973 35.5476 19.3059 35.5439L21.902 35.533H21.9166C23.0672 35.533 24.1159 36.1655 24.6548 37.1893C25.1973 38.2168 25.1282 39.449 24.4727 40.407C24.4545 40.4325 24.4363 40.4581 24.4181 40.4837L14.7398 53.219C14.1827 54.0015 13.2869 54.4878 12.3293 54.5243C12.2929 54.5243 12.2528 54.5243 12.2164 54.5243L12.2128 54.5207Z" fill="white"/>
</g>
<defs>
<clipPath id="clip0_44_5572">
<rect width="123" height="67" fill="white"/>
</clipPath>
</defs>
</svg>
