<svg width="63" height="50" viewBox="0 0 63 50" fill="none" xmlns="http://www.w3.org/2000/svg">
<g clip-path="url(#clip0_44_7004)">
<path d="M16.0748 22.1849L15.8808 21.9785C14.9783 21.0089 13.8559 19.8066 10.8607 19.8066C9.67036 19.8066 8.69028 20.2882 8.02719 21.1989C6.93713 22.6927 7.0374 24.8613 7.36733 25.9521C7.95926 27.9012 14.1761 29.3655 16.6247 29.3655C16.877 29.3655 17.0873 29.3492 17.249 29.3197C18.3164 29.11 18.6366 28.3402 18.5849 27.744C18.4037 25.6213 17.5563 23.7508 16.0716 22.1849H16.0748ZM9.49569 25.1299C9.33396 24.4223 9.38571 23.1971 9.85149 22.5583C10.0068 22.3421 10.2655 22.0965 10.8639 22.0965C12.8823 22.0965 13.4516 22.7058 14.2376 23.5509L14.4446 23.7704C15.36 24.7368 15.9519 25.8538 16.2139 27.0987C14.4446 27.0037 10.3496 25.844 9.49892 25.1299H9.49569Z" fill="white"/>
<path d="M41.8868 24.7729H21.1111C20.4868 24.7729 19.979 25.2873 19.979 25.9195C19.979 26.5517 20.4868 27.066 21.1111 27.066H41.8836C42.5079 27.066 43.0157 26.5517 43.0157 25.9195C43.0157 25.2873 42.5079 24.7729 41.8836 24.7729H41.8868Z" fill="white"/>
<path d="M39.5516 29.5029H23.4466C22.8223 29.5029 22.3145 30.0172 22.3145 30.6495C22.3145 31.2817 22.8223 31.796 23.4466 31.796H39.5516C40.1758 31.796 40.6837 31.2817 40.6837 30.6495C40.6837 30.0172 40.1758 29.5029 39.5516 29.5029Z" fill="white"/>
<path d="M52.1375 19.8066C49.1423 19.8066 48.0199 21.0121 47.1174 21.9818L46.9233 22.1882C45.4387 23.7573 44.5912 25.6278 44.4101 27.7473C44.3583 28.3402 44.6785 29.11 45.7459 29.3197C45.9077 29.3524 46.1179 29.3655 46.3702 29.3655C48.8188 29.3655 55.0357 27.898 55.6276 25.9521C55.9608 24.858 56.0578 22.6894 54.9677 21.1989C54.3047 20.2882 53.3246 19.8066 52.1342 19.8066H52.1375ZM53.5025 25.1332C52.6518 25.8506 48.5568 27.0069 46.7875 27.1019C47.0462 25.8571 47.6382 24.7401 48.5568 23.7737L48.7638 23.5542C49.5498 22.709 50.1159 22.0997 52.1375 22.0997C52.7359 22.0997 52.9947 22.3454 53.1499 22.5616C53.6157 23.2004 53.6642 24.4223 53.5025 25.1332Z" fill="white"/>
<path d="M62.999 13.7102C62.999 11.8299 60.8804 10.3558 58.1763 10.3558C56.339 10.3558 55.1131 11.3353 54.7347 13.0321L50.1868 3.45359C49.4493 1.90084 47.8838 0.888605 46.1889 0.865674C45.4643 0.783778 38.4485 0.0205078 31.5006 0.0205078C24.5528 0.0205078 17.5337 0.783778 16.8092 0.865674C15.111 0.891881 13.5455 1.90084 12.8112 3.45359L8.26339 13.0321C7.88817 11.3353 6.65903 10.3525 4.82179 10.3525C2.11768 10.3525 -0.000976562 11.8266 -0.000976562 13.707C-0.000976562 15.5873 2.11768 17.0614 4.82179 17.0614C5.42666 17.0614 6.03476 17.0188 6.57493 16.8649C5.6175 18.8926 4.63095 20.5535 3.59265 21.89C2.40232 23.4231 1.89772 25.3853 2.20501 27.2755C2.91015 31.5767 2.98131 35.6747 2.99425 39.1766C2.99425 39.9202 3.25302 40.6049 3.67351 41.1487C3.67351 41.1814 3.66381 41.2142 3.66381 41.2469V46.2197C3.66381 47.7593 4.89942 49.0107 6.41967 49.0107H11.7244C13.2446 49.0107 14.4803 47.7593 14.4803 46.2197V42.3935H48.5049V46.2197C48.5049 47.7593 49.7405 49.0107 51.2607 49.0107H56.5654C58.0857 49.0107 59.3213 47.7593 59.3213 46.2197V41.2469C59.3213 41.2142 59.3148 41.1814 59.3116 41.1487C59.7321 40.6049 59.9876 39.9202 59.9909 39.1766C60.0038 35.4127 60.1105 31.3637 60.7801 27.2722C61.0906 25.3821 60.5828 23.4198 59.3925 21.8867C58.3542 20.5502 57.3676 18.8893 56.4102 16.8616C56.9503 17.0156 57.5585 17.0581 58.1633 17.0581C60.8674 17.0581 62.9861 15.584 62.9861 13.7037L62.999 13.7102ZM14.8522 4.44944C15.2242 3.66652 16.0199 3.15876 16.8771 3.15876C16.9191 3.15876 16.9644 3.15876 17.0065 3.15221C17.0776 3.14238 24.3231 2.3136 31.5006 2.3136C38.6782 2.3136 45.9204 3.14238 45.9948 3.15221C46.0369 3.15549 46.0789 3.15876 46.1242 3.15876C46.9814 3.15876 47.7771 3.66652 48.149 4.44944L52.2828 13.1566H10.7184L14.8522 4.44944ZM6.09298 14.6307C6.00565 14.6733 5.7016 14.7749 4.82502 14.7749C3.16245 14.7749 2.26647 14.0214 2.26647 13.7135C2.26647 13.4056 3.16245 12.6521 4.82502 12.6521C5.51076 12.6521 6.12533 12.7733 6.12533 14.2245C6.12533 14.467 6.10592 14.5849 6.09298 14.634V14.6307ZM12.2258 46.2262C12.2258 46.5014 12.0058 46.7241 11.7341 46.7241H6.42291C6.1512 46.7241 5.93125 46.5014 5.93125 46.2262V42.3869C6.01535 42.3935 6.09945 42.4 6.18355 42.4H12.2225V46.2262H12.2258ZM13.277 40.107C13.4614 39.9071 13.6393 39.7073 13.8107 39.5173C15.1078 38.0661 15.9099 37.2439 17.3202 37.2439H45.6875C47.0978 37.2439 47.9 38.0661 49.1971 39.5173C49.3685 39.7073 49.5464 39.9071 49.7308 40.107H13.2738H13.277ZM56.5784 46.7274H51.2737C51.0019 46.7274 50.782 46.5047 50.782 46.2295V42.4033H56.821C56.9051 42.4033 56.9892 42.3968 57.0733 42.3902V46.2295C57.0733 46.5047 56.8533 46.7274 56.5816 46.7274H56.5784ZM58.5612 26.9086C57.8657 31.1606 57.7558 35.3177 57.7428 39.1799C57.7428 39.6942 57.3256 40.1102 56.8177 40.1102H52.9492C52.8812 39.9988 52.8004 39.894 52.6936 39.8088C52.0176 39.2618 51.4386 38.6099 50.8758 37.9842C49.5464 36.4937 48.1717 34.9541 45.6875 34.9541H17.317C14.8328 34.9541 13.4581 36.4937 12.1287 37.9842C11.5659 38.6132 10.9869 39.2618 10.3109 39.8088C10.2041 39.894 10.12 39.9988 10.0553 40.1102H6.18678C5.67895 40.1102 5.26493 39.6909 5.26169 39.1766C5.24875 35.3209 5.13878 31.1672 4.44334 26.9086C4.23633 25.6539 4.5792 24.3436 5.3749 23.315C6.9081 21.3397 8.32161 18.7616 9.6769 15.453H53.3211C54.6764 18.7616 56.0899 21.3364 57.6231 23.315C58.4221 24.3436 58.7617 25.6539 58.5547 26.9086H58.5612ZM56.8792 14.2245C56.8792 12.7733 57.4938 12.6521 58.1795 12.6521C59.8421 12.6521 60.738 13.4056 60.738 13.7135C60.738 14.0214 59.8421 14.7749 58.1795 14.7749C57.3029 14.7749 56.9989 14.6733 56.9115 14.6307C56.8986 14.5816 56.8792 14.4637 56.8792 14.2213V14.2245Z" fill="white"/>
</g>
<defs>
<clipPath id="clip0_44_7004">
<rect width="63" height="49" fill="white" transform="translate(-0.000976562 0.0205078)"/>
</clipPath>
</defs>
</svg>
