<svg width="48" height="58" viewBox="0 0 48 58" fill="none" xmlns="http://www.w3.org/2000/svg">
<g clip-path="url(#clip0_44_6984)">
<path d="M46.9647 25.2529C45.492 20.0922 42.7855 16.6056 38.9238 14.892C33.933 12.6774 28.3597 14.0549 25.4241 15.1029V12.9312C25.4241 8.97002 22.2235 5.74707 18.2897 5.74707H14.0091C13.2204 5.74707 12.5822 6.38968 12.5822 7.18389C12.5822 7.97809 13.2204 8.62071 14.0091 8.62071H18.2897C20.6493 8.62071 22.5704 10.5551 22.5704 12.9312V15.1029C19.6348 14.0549 14.0647 12.6741 9.07067 14.892C5.20894 16.6056 2.50246 20.0922 1.02976 25.2529C-0.593473 30.9309 -0.295662 37.1956 1.86429 42.8901C3.79188 47.9717 7.61107 54.5989 14.8698 57.3638C15.4982 57.6604 18.7086 58.972 22.3249 56.6388C23.3558 55.9731 24.6354 55.9731 25.663 56.6388C27.2863 57.6867 28.8277 57.9998 30.0909 57.9998C31.6422 57.9998 32.7745 57.5285 33.1181 57.3638C40.3801 54.5989 44.1993 47.9717 46.1269 42.8901C48.2869 37.1956 48.5814 30.9309 46.9614 25.2529H46.9647ZM43.4663 41.8652C41.7448 46.4064 38.3675 52.3184 32.0611 54.6945L31.9072 54.7637C31.8189 54.8098 29.7146 55.8347 27.211 54.2166C25.231 52.938 22.77 52.938 20.79 54.2166C18.2865 55.8347 16.1821 54.8065 16.1069 54.7702L15.9367 54.6945C9.63029 52.3184 6.25619 46.4064 4.5315 41.8652C2.59082 36.7474 2.32246 31.1287 3.77225 26.0471C4.99949 21.7498 7.16599 18.886 10.2096 17.5283C11.7542 16.8396 13.4037 16.5891 14.9942 16.5891C19.3763 16.5891 23.31 18.5071 23.3623 18.5334L23.9972 18.8465L24.6289 18.5334C24.7009 18.4972 31.9858 14.948 37.7849 17.5316C40.8285 18.8893 42.995 21.7531 44.2222 26.0504C45.6753 31.132 45.4037 36.7507 43.4663 41.8685V41.8652Z" fill="white"/>
<path d="M28.3106 13.1686L29.9273 12.9149C41.4012 11.1222 41.1263 1.47307 41.1231 1.3742L41.0642 0H39.6962C36.2697 0 33.5174 1.04136 31.5178 3.09114C28.2288 6.46239 28.2779 11.3166 28.2812 11.5209L28.3106 13.1686ZM33.5698 5.08818C34.7087 3.92818 36.2304 3.21966 38.1122 2.9725C37.7064 4.93 36.2861 8.28148 31.3313 9.67875C31.5898 8.33421 32.1887 6.49534 33.5698 5.08818Z" fill="white"/>
</g>
<defs>
<clipPath id="clip0_44_6984">
<rect width="48" height="58" fill="white" transform="translate(-0.000976562)"/>
</clipPath>
</defs>
</svg>
