<svg width="48" height="63" viewBox="0 0 48 63" fill="none" xmlns="http://www.w3.org/2000/svg">
<g clip-path="url(#clip0_44_7060)">
<path d="M22.6676 10.5005V11.8139C22.6676 12.5394 23.265 13.1274 24.0019 13.1274C24.7389 13.1274 25.3362 12.5394 25.3362 11.8139V10.5005C25.3362 7.60631 22.943 5.25049 20.0029 5.25049H1.3343C0.597333 5.25049 0 5.83849 0 6.56394C0 7.2894 0.597333 7.8774 1.3343 7.8774H19.999C21.4691 7.8774 22.6676 9.05722 22.6676 10.5043V10.5005Z" fill="white"/>
<path d="M26.6668 42.0005C25.9299 42.0005 25.3325 42.5885 25.3325 43.3139V45.9409C25.3325 46.6663 25.9299 47.2543 26.6668 47.2543C27.4038 47.2543 28.0011 46.6663 28.0011 45.9409V43.3139C28.0011 42.5885 27.4038 42.0005 26.6668 42.0005Z" fill="white"/>
<path d="M26.6668 49.8735C25.9299 49.8735 25.3325 50.4615 25.3325 51.187V53.8139C25.3325 54.5394 25.9299 55.1274 26.6668 55.1274C27.4038 55.1274 28.0011 54.5394 28.0011 53.8139V51.187C28.0011 50.4615 27.4038 49.8735 26.6668 49.8735Z" fill="white"/>
<path d="M26.6668 57.7505C25.9299 57.7505 25.3325 58.3385 25.3325 59.0639V61.6909C25.3325 62.4163 25.9299 63.0043 26.6668 63.0043C27.4038 63.0043 28.0011 62.4163 28.0011 61.6909V59.0639C28.0011 58.3385 27.4038 57.7505 26.6668 57.7505Z" fill="white"/>
<path d="M36.7669 45.3988L35.9329 42.9055C35.7041 42.2144 34.9516 41.8402 34.2495 42.0655C33.5514 42.2908 33.1674 43.0315 33.4001 43.7226L34.234 46.2159C34.4163 46.7695 34.94 47.1208 35.5024 47.1208C35.6381 47.1208 35.7817 47.1017 35.9174 47.0559C36.6156 46.8306 36.9996 46.0899 36.7669 45.3988Z" fill="white"/>
<path d="M39.261 52.8784L38.4271 50.3851C38.1982 49.6979 37.4457 49.3199 36.7437 49.5451C36.0455 49.7704 35.6615 50.5111 35.8942 51.2022L36.7282 53.6955C36.9105 54.2491 37.4341 54.6004 37.9965 54.6004C38.1323 54.6004 38.2758 54.5813 38.4116 54.5355C39.1097 54.3102 39.4937 53.5695 39.261 52.8784Z" fill="white"/>
<path d="M40.9251 57.8689C40.6963 57.1778 39.9438 56.8036 39.2417 57.0289C38.5435 57.2542 38.1595 57.9949 38.3923 58.686L39.2262 61.1792C39.4124 61.7329 39.9322 62.0842 40.4946 62.0842C40.6303 62.0842 40.7738 62.0651 40.9096 62.0192C41.6078 61.794 41.9918 61.0532 41.7591 60.3622L40.9251 57.8689Z" fill="white"/>
<path d="M19.0834 42.0655C18.3814 41.8402 17.6289 42.2144 17.4 42.9055L16.5661 45.3988C16.3372 46.0861 16.7174 46.8268 17.4155 47.0559C17.5552 47.1017 17.6948 47.1208 17.8306 47.1208C18.393 47.1208 18.9128 46.7695 19.0989 46.2159L19.9329 43.7226C20.1617 43.0353 19.7816 42.2946 19.0834 42.0655Z" fill="white"/>
<path d="M16.5859 49.5489C15.8838 49.3198 15.1313 49.6978 14.9025 50.3889L14.0685 52.8822C13.8397 53.5694 14.2198 54.3102 14.918 54.5393C15.0576 54.5851 15.1973 54.6042 15.333 54.6042C15.8954 54.6042 16.4152 54.2529 16.6014 53.6993L17.4353 51.206C17.6642 50.5187 17.284 49.778 16.5859 49.5489Z" fill="white"/>
<path d="M14.0917 57.0289C13.3897 56.8036 12.6372 57.1778 12.4083 57.8689L11.5744 60.3622C11.3455 61.0494 11.7257 61.7902 12.4238 62.0192C12.5635 62.0651 12.7031 62.0842 12.8389 62.0842C13.4013 62.0842 13.9211 61.7329 14.1072 61.1792L14.9412 58.686C15.17 57.9987 14.7899 57.258 14.0917 57.0289Z" fill="white"/>
<path d="M46.6657 31.5005H46.5144C46.2429 30.0763 45.4943 27.9572 43.4463 26.4987C41.8133 25.3379 36.4218 21.5579 34.6647 20.3247V17.0639C34.6647 15.6169 33.4701 14.437 31.9961 14.437H30.6618V10.5005C30.6618 4.71212 25.8754 0.000488281 19.9952 0.000488281H1.3343C0.597333 0.000488281 0 0.588488 0 1.31394C0 2.0394 0.597333 2.6274 1.3343 2.6274H19.999C24.4092 2.6274 27.9971 6.15922 27.9971 10.5005V14.437H21.3295C19.8594 14.437 18.6608 15.6169 18.6608 17.0639V20.3247C16.9038 21.5579 11.5122 25.3379 9.87927 26.4987C8.10279 27.7625 7.17188 29.7785 6.82279 31.5005H6.65988C5.92291 31.5005 5.32558 32.0885 5.32558 32.8139V38.0639C5.32558 38.7894 5.92291 39.3774 6.65988 39.3774H46.6657C47.4027 39.3774 48 38.7894 48 38.0639V32.8139C48 32.0885 47.4027 31.5005 46.6657 31.5005ZM11.4463 28.6254C13.1491 27.415 18.944 23.3487 20.4257 22.3101H22.6676C23.4046 22.3101 24.0019 21.7221 24.0019 20.9967C24.0019 20.2712 23.4046 19.6832 22.6676 19.6832H21.3333V17.0563H32V19.6832H28.001C27.264 19.6832 26.6667 20.2712 26.6667 20.9967C26.6667 21.7221 27.264 22.3101 28.001 22.3101H32.9076C34.3855 23.3449 40.1842 27.4112 41.887 28.6254C43.0158 29.431 43.5433 30.5727 43.7876 31.5005H9.57673C9.86376 30.5078 10.4301 29.3509 11.4463 28.6254ZM45.3314 36.7505H7.99806V34.1236H45.3353V36.7505H45.3314Z" fill="white"/>
</g>
<defs>
<clipPath id="clip0_44_7060">
<rect width="48" height="63" fill="white" transform="translate(0 0.000488281)"/>
</clipPath>
</defs>
</svg>
