<svg width="639" height="342" viewBox="0 0 639 342" fill="none" xmlns="http://www.w3.org/2000/svg">
<path opacity="0.105" fill-rule="evenodd" clip-rule="evenodd" d="M12.6077 244.87L3.6817 249.787H13.4136L27.7345 241.902H20.3252L29.2512 236.985H21.8472L30.7732 232.067H21.0398L6.71969 239.952H14.1297L5.20299 244.87H12.6077Z" fill="white"/>
<g opacity="0.15">
<path fill-rule="evenodd" clip-rule="evenodd" d="M570.161 17.2552L558.446 23.7456H571.221L590.017 13.3385H580.292L592.007 6.84809H582.289L594.005 0.357626H581.23L562.434 10.7727H572.159L560.444 17.2552H570.161Z" fill="white"/>
<path fill-rule="evenodd" clip-rule="evenodd" d="M614.312 17.2552L602.597 23.7456H615.372L634.167 13.3385H624.442L636.158 6.84809H626.44L638.156 0.357626H625.381L606.585 10.7727H616.31L604.594 17.2552H614.312Z" fill="white"/>
<path fill-rule="evenodd" clip-rule="evenodd" d="M531.091 17.2552L519.376 23.7456H532.15L550.946 13.3385H541.221L552.937 6.84809H543.212L554.934 0.357626H542.16L523.364 10.7727H533.089L521.366 17.2552H531.091Z" fill="white"/>
<path fill-rule="evenodd" clip-rule="evenodd" d="M492.021 17.2552L480.299 23.7456H493.073L511.869 13.3385H502.151L513.867 6.84809H504.142L515.857 0.357626H503.09L484.294 10.7727H494.012L482.296 17.2552H492.021Z" fill="white"/>
</g>
<g opacity="0.1">
<path fill-rule="evenodd" clip-rule="evenodd" d="M570.161 57.2928L558.446 63.7832H571.221L590.017 53.3761H580.292L592.007 46.8857H582.289L594.005 40.4032H581.23L562.434 50.8103H572.159L560.444 57.2928H570.161Z" fill="white"/>
<path fill-rule="evenodd" clip-rule="evenodd" d="M531.091 57.2928L519.376 63.7832H532.15L550.946 53.3761H541.221L552.937 46.8857H543.212L554.934 40.4032H542.16L523.364 50.8103H533.089L521.366 57.2928H531.091Z" fill="white"/>
<path fill-rule="evenodd" clip-rule="evenodd" d="M492.021 57.2928L480.299 63.7832H493.073L511.869 53.3761H502.151L513.867 46.8857H504.142L515.857 40.4032H503.09L484.294 50.8103H494.012L482.296 57.2928H492.021Z" fill="white"/>
</g>
<path opacity="0.1" fill-rule="evenodd" clip-rule="evenodd" d="M492.022 97.3393L480.299 103.822H493.074L511.87 93.4147H502.152L513.867 86.9322H504.142L515.858 80.4418H503.09L484.294 90.8489H494.012L482.297 97.3393H492.022Z" fill="white"/>
<g opacity="0.15">
<path fill-rule="evenodd" clip-rule="evenodd" d="M450.093 17.2552L438.371 23.7456H451.145L469.941 13.3385H460.216L471.939 6.84809H462.214L473.929 0.357626H461.155L442.359 10.7727H452.084L440.368 17.2552H450.093Z" fill="white"/>
<path fill-rule="evenodd" clip-rule="evenodd" d="M411.016 17.2552L399.301 23.7456H412.075L430.871 13.3385H421.146L432.862 6.84809H423.144L434.859 0.357626H422.085L403.289 10.7727H413.014L401.298 17.2552H411.016Z" fill="white"/>
<path fill-rule="evenodd" clip-rule="evenodd" d="M371.946 17.2552L360.231 23.7456H372.998L391.794 13.3385H382.077L393.792 6.84809H384.067L395.782 0.357626H383.015L364.219 10.7727H373.937L362.221 17.2552H371.946Z" fill="white"/>
</g>
<g opacity="0.15">
<path fill-rule="evenodd" clip-rule="evenodd" d="M450.094 57.2928L438.371 63.7832H451.146L469.942 53.3761H460.217L471.939 46.8857H462.214L473.93 40.4032H461.155L442.359 50.8103H452.084L440.369 57.2928H450.094Z" fill="white"/>
<path fill-rule="evenodd" clip-rule="evenodd" d="M411.016 57.2928L399.301 63.7832H412.075L430.871 53.3761H421.146L432.862 46.8857H423.144L434.859 40.4032H422.085L403.289 50.8103H413.014L401.298 57.2928H411.016Z" fill="white"/>
<path fill-rule="evenodd" clip-rule="evenodd" d="M371.946 57.2928L360.231 63.7832H372.998L391.794 53.3761H382.077L393.792 46.8857H384.067L395.782 40.4032H383.015L364.219 50.8103H373.937L362.221 57.2928H371.946Z" fill="white"/>
</g>
<g opacity="0.1">
<path fill-rule="evenodd" clip-rule="evenodd" d="M450.093 97.3393L438.371 103.822H451.145L469.941 93.4147H460.216L471.939 86.9322H462.214L473.929 80.4418H461.155L442.359 90.8489H452.084L440.368 97.3393H450.093Z" fill="white"/>
<path fill-rule="evenodd" clip-rule="evenodd" d="M411.016 97.3393L399.301 103.822H412.075L430.871 93.4147H421.146L432.862 86.9322H423.144L434.859 80.4418H422.085L403.289 90.8489H413.014L401.298 97.3393H411.016Z" fill="white"/>
<path fill-rule="evenodd" clip-rule="evenodd" d="M371.946 97.3393L360.231 103.822H372.998L391.794 93.4147H382.077L393.792 86.9322H384.067L395.782 80.4418H383.015L364.219 90.8489H373.937L362.221 97.3393H371.946Z" fill="white"/>
</g>
<g opacity="0.2">
<path fill-rule="evenodd" clip-rule="evenodd" d="M330.017 17.2552L318.294 23.7456H331.069L349.865 13.3385H340.147L351.862 6.84809H342.137L353.853 0.357626H341.085L322.289 10.7727H332.007L320.292 17.2552H330.017Z" fill="white"/>
<path fill-rule="evenodd" clip-rule="evenodd" d="M290.939 17.2552L279.224 23.7456H291.999L310.795 13.3385H301.07L312.785 6.84809H303.067L314.783 0.357626H302.008L283.212 10.7727H292.937L281.222 17.2552H290.939Z" fill="white"/>
<path fill-rule="evenodd" clip-rule="evenodd" d="M251.867 17.2552L240.151 23.7456H252.926L271.722 13.3385H261.997L273.713 6.84809H263.988L275.71 0.357626H262.936L244.14 10.7727H253.865L242.142 17.2552H251.867Z" fill="white"/>
</g>
<g opacity="0.15">
<path fill-rule="evenodd" clip-rule="evenodd" d="M330.017 57.2928L318.294 63.7832H331.069L349.865 53.3761H340.147L351.863 46.8857H342.138L353.853 40.4032H341.085L322.29 50.8103H332.007L320.292 57.2928H330.017Z" fill="white"/>
<path fill-rule="evenodd" clip-rule="evenodd" d="M290.939 57.2928L279.224 63.7832H291.999L310.795 53.3761H301.07L312.785 46.8857H303.067L314.783 40.4032H302.008L283.212 50.8103H292.937L281.222 57.2928H290.939Z" fill="white"/>
<path fill-rule="evenodd" clip-rule="evenodd" d="M251.867 57.2928L240.152 63.7832H252.926L271.722 53.3761H261.997L273.713 46.8857H263.988L275.71 40.4032H262.936L244.14 50.8103H253.865L242.142 57.2928H251.867Z" fill="white"/>
</g>
<g opacity="0.15">
<path fill-rule="evenodd" clip-rule="evenodd" d="M330.017 97.3393L318.294 103.822H331.069L349.865 93.4147H340.147L351.862 86.9322H342.137L353.853 80.4418H341.085L322.289 90.8489H332.007L320.292 97.3393H330.017Z" fill="white"/>
<path fill-rule="evenodd" clip-rule="evenodd" d="M290.939 97.3393L279.224 103.822H291.999L310.795 93.4147H301.07L312.785 86.9322H303.067L314.783 80.4418H302.008L283.212 90.8489H292.937L281.222 97.3393H290.939Z" fill="white"/>
<path fill-rule="evenodd" clip-rule="evenodd" d="M251.867 97.3393L240.151 103.822H252.926L271.722 93.4147H261.997L273.713 86.9322H263.988L275.71 80.4418H262.936L244.14 90.8489H253.865L242.142 97.3393H251.867Z" fill="white"/>
</g>
<g opacity="0.2">
<path fill-rule="evenodd" clip-rule="evenodd" d="M209.939 17.2552L198.223 23.7456H210.991L229.787 13.3385H220.069L231.784 6.84809H222.059L233.775 0.357626H221.007L202.211 10.7727H211.929L200.214 17.2552H209.939Z" fill="white"/>
<path fill-rule="evenodd" clip-rule="evenodd" d="M170.862 17.2552L159.146 23.7456H171.921L190.717 13.3385H180.992L192.714 6.84809H182.989L194.705 0.357626H181.93L163.134 10.7727H172.859L161.144 17.2552H170.862Z" fill="white"/>
<path fill-rule="evenodd" clip-rule="evenodd" d="M131.79 17.2552L120.075 23.7456H132.85L151.645 13.3385H141.92L153.636 6.84809H143.918L155.634 0.357626H142.859L124.063 10.7727H133.788L122.065 17.2552H131.79Z" fill="white"/>
</g>
<g opacity="0.2">
<path fill-rule="evenodd" clip-rule="evenodd" d="M209.939 57.2928L198.223 63.7832H210.991L229.787 53.3761H220.069L231.784 46.8857H222.059L233.775 40.4032H221.007L202.211 50.8103H211.929L200.214 57.2928H209.939Z" fill="white"/>
<path fill-rule="evenodd" clip-rule="evenodd" d="M170.862 57.2928L159.146 63.7832H171.921L190.717 53.3761H180.992L192.714 46.8857H182.989L194.705 40.4032H181.93L163.134 50.8103H172.859L161.144 57.2928H170.862Z" fill="white"/>
<path fill-rule="evenodd" clip-rule="evenodd" d="M131.79 57.2928L120.075 63.7832H132.85L151.645 53.3761H141.92L153.636 46.8857H143.918L155.634 40.4032H142.859L124.063 50.8103H133.788L122.065 57.2928H131.79Z" fill="white"/>
</g>
<g opacity="0.15">
<path fill-rule="evenodd" clip-rule="evenodd" d="M209.939 97.3393L198.223 103.822H210.991L229.787 93.4147H220.069L231.784 86.9322H222.059L233.775 80.4418H221.007L202.211 90.8489H211.929L200.214 97.3393H209.939Z" fill="white"/>
<path fill-rule="evenodd" clip-rule="evenodd" d="M170.862 97.3393L159.146 103.822H171.921L190.717 93.4147H180.992L192.714 86.9322H182.989L194.705 80.4418H181.93L163.134 90.8489H172.859L161.144 97.3393H170.862Z" fill="white"/>
<path fill-rule="evenodd" clip-rule="evenodd" d="M131.79 97.3393L120.075 103.822H132.85L151.645 93.4147H141.92L153.636 86.9322H143.918L155.634 80.4418H142.859L124.063 90.8489H133.788L122.065 97.3393H131.79Z" fill="white"/>
</g>
<g opacity="0.25">
<path fill-rule="evenodd" clip-rule="evenodd" d="M89.864 17.2552L78.1486 23.7456H90.9233L109.719 13.3385H99.9942L111.71 6.84809H101.985L113.707 0.357626H100.933L82.1367 10.7727H91.8616L80.1391 17.2552H89.864Z" fill="white"/>
<path fill-rule="evenodd" clip-rule="evenodd" d="M50.7942 17.2552L39.0717 23.7456H51.8463L70.6422 13.3385H60.9244L72.6398 6.84809H62.9149L74.6304 0.357626H61.8628L43.0669 10.7727H52.7847L41.0693 17.2552H50.7942Z" fill="white"/>
<path fill-rule="evenodd" clip-rule="evenodd" d="M11.7171 17.2552L0.00158691 23.7456H12.7763L31.5722 13.3385H21.8473L33.5627 6.84809H23.8449L35.5603 0.357626H22.7856L3.98971 10.7727H13.7147L1.99918 17.2552H11.7171Z" fill="white"/>
</g>
<g opacity="0.2">
<path fill-rule="evenodd" clip-rule="evenodd" d="M89.864 57.2928L78.1486 63.7832H90.9233L109.719 53.3761H99.9942L111.71 46.8857H101.985L113.707 40.4032H100.933L82.1367 50.8103H91.8616L80.1391 57.2928H89.864Z" fill="white"/>
<path fill-rule="evenodd" clip-rule="evenodd" d="M50.7942 57.2928L39.0717 63.7832H51.8463L70.6422 53.3761H60.9244L72.6398 46.8857H62.9149L74.6304 40.4032H61.8628L43.0669 50.8103H52.7847L41.0693 57.2928H50.7942Z" fill="white"/>
<path fill-rule="evenodd" clip-rule="evenodd" d="M11.7171 57.2928L0.00158691 63.7832H12.7763L31.5722 53.3761H21.8473L33.5627 46.8857H23.8449L35.5603 40.4032H22.7856L3.98971 50.8103H13.7147L1.99918 57.2928H11.7171Z" fill="white"/>
</g>
<g opacity="0.2">
<path fill-rule="evenodd" clip-rule="evenodd" d="M89.864 97.3393L78.1486 103.822H90.9233L109.719 93.4147H99.9942L111.71 86.9322H101.985L113.707 80.4418H100.933L82.1367 90.8489H91.8616L80.1391 97.3393H89.864Z" fill="white"/>
<path fill-rule="evenodd" clip-rule="evenodd" d="M50.7942 97.3393L39.0717 103.822H51.8463L70.6422 93.4147H60.9244L72.6398 86.9322H62.9149L74.6304 80.4418H61.8628L43.0669 90.8489H52.7847L41.0693 97.3393H50.7942Z" fill="white"/>
<path fill-rule="evenodd" clip-rule="evenodd" d="M11.7171 97.3393L0.00158691 103.822H12.7763L31.5722 93.4147H21.8473L33.5627 86.9322H23.8449L35.5603 80.4418H22.7856L3.98971 90.8489H13.7147L1.99918 97.3393H11.7171Z" fill="white"/>
</g>
<path opacity="0.1" fill-rule="evenodd" clip-rule="evenodd" d="M411.015 135.258L399.299 141.749H412.074L430.87 131.333H421.145L432.86 124.851H423.142L434.858 118.361H422.083L403.287 128.768H413.012L401.297 135.258H411.015Z" fill="white"/>
<path opacity="0.1" fill-rule="evenodd" clip-rule="evenodd" d="M371.944 135.258L360.228 141.749H372.996L391.792 131.333H382.074L393.789 124.851H384.064L395.78 118.361H383.012L364.216 128.768H373.934L362.219 135.258H371.944Z" fill="white"/>
<g opacity="0.1">
<path fill-rule="evenodd" clip-rule="evenodd" d="M330.017 135.258L318.294 141.749H331.069L349.865 131.333H340.147L351.863 124.851H342.138L353.853 118.361H341.085L322.29 128.768H332.007L320.292 135.258H330.017Z" fill="white"/>
<path fill-rule="evenodd" clip-rule="evenodd" d="M290.939 135.258L279.224 141.749H291.999L310.795 131.333H301.07L312.785 124.851H303.067L314.783 118.361H302.008L283.212 128.768H292.937L281.222 135.258H290.939Z" fill="white"/>
<path fill-rule="evenodd" clip-rule="evenodd" d="M251.868 135.258L240.153 141.749H252.928L271.724 131.333H261.999L273.714 124.851H263.989L275.712 118.361H262.937L244.141 128.768H253.866L242.143 135.258H251.868Z" fill="white"/>
</g>
<g opacity="0.1">
<path fill-rule="evenodd" clip-rule="evenodd" d="M330.017 175.296L318.294 181.787H331.069L349.865 171.38H340.147L351.863 164.889H342.138L353.853 158.399H341.085L322.29 168.806H332.007L320.292 175.296H330.017Z" fill="white"/>
<path fill-rule="evenodd" clip-rule="evenodd" d="M290.939 175.296L279.224 181.787H291.999L310.795 171.38H301.07L312.785 164.889H303.067L314.783 158.399H302.008L283.212 168.806H292.937L281.222 175.296H290.939Z" fill="white"/>
<path fill-rule="evenodd" clip-rule="evenodd" d="M251.868 175.296L240.153 181.787H252.928L271.724 171.38H261.999L273.714 164.889H263.989L275.712 158.399H262.937L244.141 168.806H253.866L242.143 175.296H251.868Z" fill="white"/>
</g>
<path opacity="0.1" fill-rule="evenodd" clip-rule="evenodd" d="M251.868 215.334L240.153 221.824H252.928L271.724 211.417H261.999L273.714 204.927H263.989L275.712 198.436H262.937L244.141 208.851H253.866L242.143 215.334H251.868Z" fill="white"/>
<g opacity="0.15">
<path fill-rule="evenodd" clip-rule="evenodd" d="M209.939 135.258L198.223 141.749H210.991L229.787 131.333H220.069L231.784 124.851H222.059L233.775 118.361H221.007L202.211 128.768H211.929L200.214 135.258H209.939Z" fill="white"/>
<path fill-rule="evenodd" clip-rule="evenodd" d="M170.862 135.258L159.146 141.749H171.921L190.717 131.333H180.992L192.714 124.851H182.989L194.705 118.361H181.93L163.134 128.768H172.859L161.144 135.258H170.862Z" fill="white"/>
<path fill-rule="evenodd" clip-rule="evenodd" d="M131.79 135.258L120.075 141.749H132.85L151.645 131.333H141.92L153.636 124.851H143.918L155.634 118.361H142.859L124.063 128.768H133.788L122.065 135.258H131.79Z" fill="white"/>
</g>
<g opacity="0.15">
<path fill-rule="evenodd" clip-rule="evenodd" d="M209.939 175.296L198.223 181.787H210.991L229.787 171.38H220.069L231.784 164.889H222.059L233.775 158.399H221.007L202.211 168.806H211.929L200.214 175.296H209.939Z" fill="white"/>
<path fill-rule="evenodd" clip-rule="evenodd" d="M170.862 175.296L159.146 181.787H171.921L190.717 171.38H180.992L192.714 164.889H182.989L194.705 158.399H181.93L163.134 168.806H172.859L161.144 175.296H170.862Z" fill="white"/>
<path fill-rule="evenodd" clip-rule="evenodd" d="M131.79 175.296L120.075 181.787H132.85L151.645 171.38H141.92L153.636 164.889H143.918L155.634 158.399H142.859L124.063 168.806H133.788L122.065 175.296H131.79Z" fill="white"/>
</g>
<g opacity="0.1">
<path fill-rule="evenodd" clip-rule="evenodd" d="M209.939 215.335L198.223 221.825H210.991L229.787 211.418H220.069L231.784 204.928H222.059L233.775 198.437H221.007L202.211 208.852H211.929L200.214 215.335H209.939Z" fill="white"/>
<path fill-rule="evenodd" clip-rule="evenodd" d="M170.862 215.335L159.146 221.825H171.921L190.717 211.418H180.992L192.714 204.928H182.989L194.705 198.437H181.93L163.134 208.852H172.859L161.144 215.335H170.862Z" fill="white"/>
<path fill-rule="evenodd" clip-rule="evenodd" d="M131.79 215.335L120.075 221.825H132.85L151.645 211.418H141.92L153.636 204.928H143.918L155.634 198.437H142.859L124.063 208.852H133.788L122.065 215.335H131.79Z" fill="white"/>
</g>
<g opacity="0.2">
<path fill-rule="evenodd" clip-rule="evenodd" d="M89.864 135.258L78.1486 141.749H90.9233L109.719 131.333H99.9942L111.71 124.851H101.985L113.707 118.361H100.933L82.1367 128.768H91.8616L80.1391 135.258H89.864Z" fill="white"/>
<path fill-rule="evenodd" clip-rule="evenodd" d="M50.7942 135.258L39.0717 141.749H51.8463L70.6422 131.333H60.9244L72.6398 124.851H62.9149L74.6304 118.361H61.8628L43.0669 128.768H52.7847L41.0693 135.258H50.7942Z" fill="white"/>
<path fill-rule="evenodd" clip-rule="evenodd" d="M11.7171 135.258L0.00158691 141.749H12.7763L31.5722 131.333H21.8473L33.5627 124.851H23.8449L35.5603 118.361H22.7856L3.98971 128.768H13.7147L1.99918 135.258H11.7171Z" fill="white"/>
</g>
<g opacity="0.15">
<path fill-rule="evenodd" clip-rule="evenodd" d="M89.864 175.296L78.1486 181.787H90.9233L109.719 171.38H99.9942L111.71 164.889H101.985L113.707 158.399H100.933L82.1367 168.806H91.8616L80.1391 175.296H89.864Z" fill="white"/>
<path fill-rule="evenodd" clip-rule="evenodd" d="M50.7942 175.296L39.0717 181.787H51.8463L70.6422 171.38H60.9244L72.6398 164.889H62.9149L74.6304 158.399H61.8628L43.0669 168.806H52.7847L41.0693 175.296H50.7942Z" fill="white"/>
<path fill-rule="evenodd" clip-rule="evenodd" d="M11.7171 175.296L0.00158691 181.787H12.7763L31.5722 171.38H21.8473L33.5627 164.889H23.8449L35.5603 158.399H22.7856L3.98971 168.806H13.7147L1.99918 175.296H11.7171Z" fill="white"/>
</g>
<g opacity="0.15">
<path fill-rule="evenodd" clip-rule="evenodd" d="M89.864 215.335L78.1486 221.825H90.9233L109.719 211.418H99.9942L111.71 204.928H101.985L113.707 198.437H100.933L82.1367 208.852H91.8616L80.1391 215.335H89.864Z" fill="white"/>
<path fill-rule="evenodd" clip-rule="evenodd" d="M50.7942 215.335L39.0717 221.825H51.8463L70.6422 211.418H60.9244L72.6398 204.928H62.9149L74.6304 198.437H61.8628L43.0669 208.852H52.7847L41.0693 215.335H50.7942Z" fill="white"/>
<path fill-rule="evenodd" clip-rule="evenodd" d="M11.7171 215.335L0.00158691 221.825H12.7763L31.5722 211.418H21.8473L33.5627 204.928H23.8449L35.5603 198.437H22.7856L3.98971 208.852H13.7147L1.99918 215.335H11.7171Z" fill="white"/>
</g>
<path opacity="0.1" fill-rule="evenodd" clip-rule="evenodd" d="M170.862 255.059L159.146 261.549H171.921L190.717 251.134H180.992L192.715 244.652H182.99L194.705 238.161H181.93L163.134 248.568H172.859L161.144 255.059H170.862Z" fill="white"/>
<path opacity="0.1" fill-rule="evenodd" clip-rule="evenodd" d="M131.792 255.059L120.076 261.549H132.851L151.647 251.134H141.922L153.637 244.652H143.919L155.635 238.161H142.86L124.064 248.568H133.789L122.067 255.059H131.792Z" fill="white"/>
<path opacity="0.1" fill-rule="evenodd" clip-rule="evenodd" d="M89.8648 255.059L78.1493 261.549H90.924L109.72 251.134H99.995L111.71 244.652H101.985L113.708 238.161H100.933L82.1374 248.568H91.8624L80.1398 255.059H89.8648Z" fill="white"/>
<path opacity="0.15" fill-rule="evenodd" clip-rule="evenodd" d="M50.7928 255.059L39.0702 261.549H51.8449L70.6408 251.134H60.9229L72.6384 244.652H62.9134L74.6289 238.161H61.8613L43.0654 248.568H52.7832L41.0678 255.059H50.7928Z" fill="white"/>
<path opacity="0.15" fill-rule="evenodd" clip-rule="evenodd" d="M11.7154 255.059L-0.00012207 261.549H12.7746L31.5705 251.134H21.8455L33.561 244.652H23.8431L35.5586 238.161H22.7839L3.988 248.568H13.713L1.99747 255.059H11.7154Z" fill="white"/>
<path opacity="0.1" fill-rule="evenodd" clip-rule="evenodd" d="M89.8648 295.097L78.1493 301.587H90.924L109.72 291.18H99.995L111.71 284.69H101.985L113.708 278.199H100.933L82.1374 288.607H91.8624L80.1398 295.097H89.8648Z" fill="white"/>
<path opacity="0.1" fill-rule="evenodd" clip-rule="evenodd" d="M50.7928 295.097L39.0702 301.587H51.8449L70.6408 291.18H60.9229L72.6384 284.69H62.9134L74.6289 278.199H61.8613L43.0654 288.607H52.7832L41.0678 295.097H50.7928Z" fill="white"/>
<path opacity="0.15" fill-rule="evenodd" clip-rule="evenodd" d="M11.7154 295.097L-0.00012207 301.587H12.7746L31.5705 291.18H21.8455L33.561 284.69H23.8431L35.5586 278.199H22.7839L3.988 288.607H13.713L1.99747 295.097H11.7154Z" fill="white"/>
<path opacity="0.1" fill-rule="evenodd" clip-rule="evenodd" d="M11.7154 335.135L-0.00012207 341.625H12.7746L31.5705 331.218H21.8455L33.561 324.728H23.8431L35.5586 318.238H22.7839L3.988 328.653H13.713L1.99747 335.135H11.7154Z" fill="white"/>
</svg>
