<svg width="265" height="64" viewBox="0 0 265 64" fill="none" xmlns="http://www.w3.org/2000/svg">
<path d="M96.068 0.0078125C100.614 0.0078125 101.893 2.17087 100.837 5.18674L98.3023 12.4744H88.063L88.8951 10.2106C89.1801 9.35779 88.8797 8.90037 87.9782 8.90037H81.8839L80.7668 12.0635L94.1573 24.3286L90.3666 35.1361C88.8257 39.5087 85.1044 40.2143 81.3138 40.2143H60.6887L64.9031 28.205H75.1425L74.0869 31.2209H80.1812C81.0287 31.2209 81.6528 30.9728 82.0766 29.7634L82.9472 27.0964L69.6183 14.7305L73.1239 4.77583C73.3319 4.17111 73.4475 3.56638 73.4552 2.96941C73.5091 1.96154 73.3319 0.759842 72.4073 0.0078125H96.0834H96.068Z" fill="white"/>
<path d="M106.069 3.72914C106.169 3.2252 106.223 2.72126 106.215 2.27159C106.146 1.46529 105.938 0.56596 104.998 0.00775306H117.587L107.109 29.9106C106.831 30.6626 107.332 31.1666 108.079 31.1666H114.074L123.905 3.17093C123.989 2.82205 124.028 2.4189 124.02 2.06227C123.935 1.41102 123.666 0.604725 122.733 0H131.817C133.528 0 134.722 1.69788 134.152 3.31823L121.169 40.2064H100.93C96.3377 40.2064 94.1727 37.8418 95.7907 33.2211L106.076 3.71363L106.069 3.72914Z" fill="white"/>
<path d="M139.075 3.32604C139.167 2.92289 139.206 2.51975 139.19 2.17087C139.106 1.51962 138.836 0.759842 137.911 0.0078125H153.143L151.171 19.9637L160.347 4.38044C160.594 3.93077 160.74 3.42683 160.848 2.9229C160.986 2.07008 160.948 0.961417 159.892 0.0078125H173.499C175.394 0.0078125 176.711 1.89176 176.087 3.68268L164.492 36.896C164.353 37.2992 163.313 40.2143 163.313 40.2143H153.066L159.6 22.0725L148.821 40.2143H140.831L142.727 22.0182L136.332 40.2143H126.146L139.082 3.31829L139.075 3.32604Z" fill="white"/>
<path d="M181.226 3.32604C181.319 2.92289 181.357 2.51975 181.342 2.17087C181.257 1.51962 180.988 0.759842 180.063 0.0078125H192.598L187.113 15.6919H194.555L198.854 3.32604C198.993 2.92289 199.039 2.51975 198.97 2.17087C198.885 1.51962 198.562 0.759842 197.637 0.0078125H206.767C208.477 0.0078125 209.672 1.70569 209.109 3.3338L197.337 36.9503C197.198 37.3534 196.181 40.2143 196.181 40.2143H185.965L191.45 24.5302H184.008L179.709 36.896C179.57 37.2992 178.514 40.2143 178.514 40.2143H168.283L181.211 3.31829L181.226 3.32604Z" fill="white"/>
<path d="M214.14 3.32604C214.233 2.92289 214.271 2.51975 214.256 2.17087C214.171 1.51962 213.901 0.759842 212.977 0.0078125H221.359C223.386 0.0078125 224.811 2.02356 224.133 3.95403L212.63 36.9038C212.491 37.3069 211.467 40.222 211.467 40.222H201.212L214.14 3.32604Z" fill="white"/>
<path d="M229.619 3.32604C229.711 2.92289 229.75 2.51975 229.734 2.17087C229.65 1.51962 229.38 0.759842 228.455 0.0078125H236.368C238.625 0.0078125 240.205 2.25615 239.457 4.39594L228.109 36.896C227.97 37.2992 226.945 40.2143 226.945 40.2143H216.69L229.619 3.31829V3.32604Z" fill="white"/>
<path d="M243.41 4.78365C243.618 4.17892 243.733 3.5742 243.741 2.97723C243.795 1.96935 243.618 0.767654 242.693 0.015625H261.893C264.027 0.015625 265.522 2.13216 264.828 4.15566L263.203 8.90818H257.856L248.071 36.9038C247.932 37.307 246.915 40.2221 246.915 40.2221H236.645L247.617 8.90818H241.938L243.402 4.78365H243.41Z" fill="white"/>
<path fill-rule="evenodd" clip-rule="evenodd" d="M45.7881 11.2263L68.2931 0.0776367H43.7541L7.65832 17.9635H26.3342L3.82916 29.1199H22.4973L0 40.2686H24.5313L60.6271 22.3827H41.959L64.4563 11.2263H45.7881Z" fill="white"/>
<path d="M117.071 55.9062V57.8521H124.128V60.7207H117.071V63.8374H113.696V53.0376H125.045V55.9062H117.071Z" fill="white"/>
<path d="M136.756 63.8374H133.381V53.0376H136.756V63.8374Z" fill="white"/>
<path d="M158.282 55.9062H153.374V63.8374H150V55.9062H145.092V53.0376H158.282V55.9062Z" fill="white"/>
<path d="M180.448 53.0376V63.8374H175.972L169.993 56.4954V63.8374H166.619V53.0376H171.11L177.074 60.3486V53.0376H180.448Z" fill="white"/>
<path d="M192.406 55.6736V57.2784H200.38V59.5965H192.406V61.2014H200.38V63.8374H189.031V53.0376H200.38V55.6736H192.406Z" fill="white"/>
<path d="M211.983 60.0692C211.983 60.8988 212.707 61.3485 215.712 61.3485C218.332 61.3485 218.948 61.1004 218.948 60.4879C218.948 59.7901 218.47 59.6971 215.465 59.5808C210.712 59.3947 208.855 58.6272 208.855 56.1385C208.855 53.6499 211.213 52.8823 215.342 52.8823C219.472 52.8823 221.86 53.898 221.86 56.6192H218.486C218.486 55.7431 217.446 55.5261 215.034 55.5261C212.622 55.5261 212.23 55.7121 212.23 56.3169C212.23 56.9526 212.753 57.0301 215.465 57.1464C219.695 57.348 222.322 57.6116 222.322 60.4026C222.322 63.3332 219.749 64 215.558 64C211.159 64 208.608 63.2402 208.608 60.077H211.983V60.0692Z" fill="white"/>
<path d="M233.872 60.0692C233.872 60.8988 234.596 61.3485 237.601 61.3485C240.22 61.3485 240.837 61.1004 240.837 60.4879C240.837 59.7901 240.359 59.6971 237.354 59.5808C232.6 59.3947 230.744 58.6272 230.744 56.1385C230.744 53.6499 233.101 52.8823 237.231 52.8823C241.36 52.8823 243.749 53.898 243.749 56.6192H240.374C240.374 55.7431 239.334 55.5261 236.923 55.5261C234.511 55.5261 234.118 55.7121 234.118 56.3169C234.118 56.9526 234.642 57.0301 237.354 57.1464C241.584 57.348 244.211 57.6116 244.211 60.4026C244.211 63.3332 241.638 64 237.447 64C233.047 64 230.497 63.2402 230.497 60.077H233.872V60.0692Z" fill="white"/>
</svg>
