<svg width="44" height="65" viewBox="0 0 44 65" fill="none" xmlns="http://www.w3.org/2000/svg">
<g clip-path="url(#clip0_44_7017)">
<path d="M43.0284 0H0.971591C0.434659 0 0 0.432504 0 0.966774V64.0332C0 64.5675 0.434659 65 0.971591 65C1.50852 65 1.94318 64.5675 1.94318 64.0332V1.93072H42.0568V64.0332C42.0568 64.5675 42.4915 65 43.0284 65C43.5653 65 44 64.5675 44 64.0332V0.966774C44 0.432504 43.5653 0 43.0284 0Z" fill="white"/>
<path d="M38.6589 4.24902H5.34073C4.83789 4.24902 4.43164 4.65326 4.43164 5.15361V64.0957C4.43164 64.5961 4.83789 65.0003 5.34073 65.0003H38.6589C39.1618 65.0003 39.568 64.5961 39.568 64.0957V5.15361C39.568 4.65326 39.1618 4.24902 38.6589 4.24902ZM37.7498 63.194H6.24982V6.05536H37.7498V63.1911V63.194Z" fill="white"/>
<path d="M33.3665 37.0855C34.7302 37.0855 35.841 35.9802 35.841 34.6233C35.841 33.2664 34.7302 32.1611 33.3665 32.1611C32.0029 32.1611 30.8921 33.2664 30.8921 34.6233C30.8921 35.9802 32.0029 37.0855 33.3665 37.0855ZM33.3665 33.9703C33.7273 33.9703 34.0228 34.2643 34.0228 34.6233C34.0228 34.9823 33.7273 35.2763 33.3665 35.2763C33.0057 35.2763 32.7103 34.9823 32.7103 34.6233C32.7103 34.2643 33.0057 33.9703 33.3665 33.9703Z" fill="white"/>
</g>
<defs>
<clipPath id="clip0_44_7017">
<rect width="44" height="65" fill="white"/>
</clipPath>
</defs>
</svg>
