<svg width="44" height="58" viewBox="0 0 44 58" fill="none" xmlns="http://www.w3.org/2000/svg">
<path d="M1.24659 58.0005H42.7536C43.0923 57.9983 43.4154 57.8639 43.6497 57.6282C43.8845 57.392 44.0102 57.075 43.9991 56.7482V25.337C44.0074 25.1218 43.9575 24.908 43.8535 24.7178L40.3337 18.7386C39.468 17.2653 38.9564 15.6233 38.8363 13.9336L38.0062 1.22688C37.9642 0.573287 37.4064 0.062506 36.7283 0.0563344L30.5483 0.000976217V0.000529557C29.8726 -0.00393481 29.306 0.493402 29.2469 1.14342C28.9404 4.58455 28.0174 7.37527 26.5792 9.21327C25.3452 10.7897 23.7518 11.6227 21.9705 11.6227C18.0625 11.6227 15.2737 7.60693 14.6942 1.14251C14.6346 0.493379 14.0694 -0.00301322 13.3946 0.000506886L6.63961 0.0558661V0.0563126C5.96069 0.06167 5.40193 0.573288 5.35898 1.22778L4.50489 14.315V14.3146C4.39952 15.8481 3.96831 17.3442 3.2381 18.7098L0.120289 24.598C0.0338636 24.777 -0.00726568 24.9734 0.0010518 25.1708V56.7477C-0.0100402 57.0745 0.115668 57.3915 0.350445 57.6277C0.584766 57.8634 0.907812 57.9978 1.24658 58L1.24659 58.0005ZM2.58922 55.5004V51.7504H41.4105V55.5004H2.58922ZM5.56234 19.8548C6.452 18.1837 6.97513 16.3533 7.099 14.4778L7.87174 2.54715L12.2475 2.51144C13.2051 9.7072 16.8673 14.1244 21.9728 14.1244C24.5965 14.1244 26.9032 12.948 28.6451 10.7229C30.2295 8.69917 31.255 5.94103 31.7005 2.51281L35.5022 2.54674L36.2602 14.0991H36.2607C36.4007 16.1657 37.0205 18.1751 38.0742 19.9787L41.411 25.6695V49.2508H2.58973V25.4752L5.56234 19.8548Z" fill="white"/>
</svg>
