<svg width="159" height="83" viewBox="0 0 159 83" fill="none" xmlns="http://www.w3.org/2000/svg">
<path d="M63.5323 0.103981L63.5311 0.000415802L7.30908 47.9902H26.4596L46.2499 22.2471L51.5691 28.0157L63.5323 0.103981ZM63.5536 0.0321846L63.5311 0.000415802L63.5467 0.0537872L63.5536 0.0321846ZM85.7174 11.8681L76.4667 20.8727L63.5831 0.0728455L78.0669 31.4163L85.7174 11.8681Z" fill="#100F0D"/>
<path d="M63.5323 0.103981L63.5311 0.000415802L7.30908 47.9902H26.4596L46.2499 22.2471L51.5691 28.0157L63.5323 0.103981ZM63.5536 0.0321846L63.5311 0.000415802L63.5467 0.0537872L63.5536 0.0321846ZM85.7174 11.8681L76.4667 20.8727L63.5831 0.0728455L78.0669 31.4163L85.7174 11.8681Z" fill="#100F0D"/>
<path d="M63.6721 0.265104L78.067 31.416L85.7175 11.8678L76.4668 20.8725L63.6756 0.221897L63.6721 0.265104Z" fill="#100F0D"/>
<path d="M11.9741 77.5707V74.8563C11.9741 72.8097 10.5466 71.2645 10.5466 71.2645L3.22409 63.3718C3.22409 63.3718 2.39482 62.4943 2.39482 61.2833V59.4038C2.39482 57.6082 4.00658 56.1468 5.98735 56.1468C7.96754 56.1468 9.57929 57.6082 9.57929 59.4038V62.8234H11.9741V59.4038C11.9741 56.3972 9.30325 53.9751 5.98735 53.9751C2.67144 53.9751 0 56.3972 0 59.4038V61.2833C0 63.2879 1.38192 64.7912 1.38192 64.7912L8.7044 72.6846C8.7044 72.6846 9.57929 73.6453 9.57929 74.8563V77.5707C9.57929 79.3662 7.96754 80.8283 5.98735 80.8283C4.00658 80.8283 2.39482 79.3662 2.39482 77.5707V73.4025H0.321659L0 73.4362V77.5707C0 80.5773 2.67144 83 5.98735 83C9.30325 83 11.9741 80.5773 11.9741 77.5707ZM16.7632 82.5819H27.0793V80.4108H19.158V69.5941H24.7307V67.3804H19.158V56.5643H26.7109V54.3925H16.7632V82.5819ZM31.2701 82.5819H41.1717V80.4108H33.665V54.3925H31.2701V82.5819ZM55.1716 56.5643V54.3925H45.2239V82.5819H47.6187V69.5941H53.1914V67.3804H47.6187V56.5643H55.1716Z" fill="#100F0D"/>
<path d="M90.8656 77.5707V74.8563C90.8656 72.8097 89.4381 71.2645 89.4381 71.2645L82.1156 63.3718C82.1156 63.3718 81.2869 62.4943 81.2869 61.2833V59.4038C81.2869 57.6082 82.8987 56.1468 84.8789 56.1468C86.8596 56.1468 88.4714 57.6082 88.4714 59.4038V62.8234H90.8656V59.4038C90.8656 56.3972 88.1948 53.9751 84.8789 53.9751C81.5629 53.9751 78.8921 56.3972 78.8921 59.4038V61.2833C78.8921 63.2879 80.2734 64.7912 80.2734 64.7912L87.5959 72.6846C87.5959 72.6846 88.4714 73.6453 88.4714 74.8563V77.5707C88.4714 79.3662 86.8596 80.8283 84.8789 80.8283C82.8987 80.8283 81.2869 79.3662 81.2869 77.5707V73.494H78.8921V77.5707C78.8921 80.5773 81.5629 83 84.8789 83C88.1948 83 90.8656 80.5773 90.8656 77.5707ZM100.998 56.5643H105.28V54.3925H94.2272V56.5643H98.5565V82.5819H100.998V56.5643ZM109.379 82.5819H119.695V80.4108H111.774V69.5941H117.347V67.381H111.774V56.5643H119.327V54.3925H109.379V82.5819ZM123.886 82.5819H134.202V80.4108H126.281V69.5941H131.854V67.381H126.281V56.5643H133.834V54.3925H123.886V82.5819ZM155.986 82.5819V54.3925H152.347L147.189 79.2411H147.097L141.985 54.3925H138.393V82.5819H140.788V58.9444H140.88L145.808 82.5819H148.525L153.499 58.736H153.591V82.5819H155.986Z" fill="#100F0D"/>
<path d="M75.466 56.564V54.3923H65.5183V82.5811H75.8345V80.41H67.9131V69.5938H73.4853V67.3802H67.9131V56.564H75.466Z" fill="#100F0D"/>
<path d="M154.275 48.1055C155.457 48.1055 156.333 47.3608 156.333 46.1447C156.333 44.9813 155.542 44.5511 154.513 44.1108C153.722 43.776 153.132 43.4716 153.132 42.7378C153.132 42.1087 153.59 41.6576 154.341 41.6576C154.732 41.6576 155.19 41.7942 155.361 42.0039C155.295 42.0979 155.227 42.2345 155.227 42.4023C155.227 42.685 155.428 42.9366 155.733 42.9366C155.999 42.9366 156.228 42.7174 156.228 42.3286C156.228 41.6157 155.39 40.9657 154.36 40.9657C153.189 40.9657 152.427 41.7415 152.427 42.8007C152.427 43.985 153.246 44.4253 154.322 44.8765C155.037 45.1802 155.629 45.4947 155.629 46.2076C155.629 46.9522 155.123 47.4237 154.285 47.4237C153.713 47.4237 153.246 47.2248 153.036 46.9942C153.122 46.8684 153.189 46.7216 153.189 46.5329C153.189 46.2603 152.988 46.0189 152.694 46.0189C152.408 46.0189 152.189 46.2813 152.189 46.6797C152.189 47.3513 153.046 48.1055 154.275 48.1055ZM141.259 47.2979V41.7834H142.078C143.85 41.7834 144.975 42.8007 144.975 44.4571C144.975 46.1447 144.032 47.2979 142.155 47.2979H141.259ZM139.744 47.9898H142.069C144.375 47.9898 145.699 46.5539 145.699 44.4673C145.699 42.4232 144.279 41.0915 142.097 41.0915H139.744V41.7834H140.545V47.2979H139.744V47.9898ZM132.169 48.0216L132.559 48.0108V41.7834H133.331V41.0915H131.054V41.7834H131.884V46.3448L128.262 41.0915H126.842V41.7834H127.643V47.2979H126.842V47.9898H129.148V47.2979H128.329V42.4544L132.169 48.0216ZM116.323 44.9495L117.4 41.7313L118.467 44.9495H116.323ZM114.218 47.9898H116.314V47.3087H115.551L116.113 45.6103H118.677L119.238 47.3087H118.506V47.9898H120.601V47.2979H120.001L118.124 41.7732H118.839V41.0915H115.98V41.7732H116.695L114.817 47.2979H114.218V47.9898ZM105.261 44.5092C104.956 44.5092 104.689 44.499 104.499 44.4882V41.7834H105.327C106.299 41.7834 106.928 42.2447 106.928 43.1152C106.928 44.0269 106.213 44.5092 105.261 44.5092ZM102.983 47.9898H105.318V47.2979H104.499V45.17C104.679 45.1802 104.975 45.191 105.223 45.191C105.346 45.191 105.47 45.1802 105.585 45.17L107.128 47.9898H108.367V47.2979H107.614L106.299 44.9813C107.09 44.6979 107.643 44.0377 107.643 43.0942C107.643 41.8571 106.747 41.0915 105.366 41.0915H102.983V41.7834H103.783V47.2979H102.983V47.9898ZM93.1022 44.1528V41.7732H94.0931C95.0177 41.7732 95.5126 42.2028 95.5126 42.9157C95.5126 43.6495 95.0177 44.1528 94.0262 44.1528H93.1022ZM93.1022 47.3087V44.7926H94.0452C95.0743 44.7926 95.6945 45.2329 95.6945 46.0608C95.6945 46.7947 95.1696 47.3087 94.2462 47.3087H93.1022ZM91.5967 47.9898H94.2271C95.6079 47.9898 96.399 47.1931 96.399 46.1027C96.399 45.2119 95.9128 44.6979 95.0743 44.4571C95.7511 44.2271 96.2177 43.6711 96.2177 42.8426C96.2177 41.92 95.5992 41.0915 94.1122 41.0915H91.5967V41.7834H92.3976V47.2979H91.5967V47.9898Z" fill="#100F0D"/>
<path d="M157.563 81.6807H157.649C157.75 81.6807 157.831 81.6438 157.831 81.5549C157.831 81.4754 157.778 81.4233 157.664 81.4233C157.616 81.4233 157.583 81.4284 157.563 81.4329V81.6807ZM157.558 82.1705H157.377V81.3071C157.449 81.2912 157.549 81.2804 157.678 81.2804C157.826 81.2804 157.893 81.3071 157.951 81.3439C157.994 81.3808 158.028 81.4494 158.028 81.5339C158.028 81.6279 157.96 81.7016 157.864 81.7334V81.7442C157.941 81.7753 157.984 81.8389 158.009 81.9545C158.032 82.0867 158.047 82.1388 158.065 82.1705H157.87C157.845 82.1388 157.831 82.06 157.807 81.9596C157.793 81.8649 157.745 81.823 157.645 81.823H157.558V82.1705ZM157.075 81.7181C157.075 82.1019 157.334 82.4075 157.688 82.4075C158.032 82.4075 158.286 82.1019 158.286 81.7226C158.286 81.3388 158.032 81.0281 157.683 81.0281C157.334 81.0281 157.075 81.3388 157.075 81.7181ZM158.487 81.7181C158.487 82.2074 158.137 82.5918 157.683 82.5918C157.233 82.5918 156.875 82.2074 156.875 81.7181C156.875 81.2391 157.233 80.854 157.683 80.854C158.137 80.854 158.487 81.2391 158.487 81.7181Z" fill="#100F0D"/>
</svg>
