<svg width="694" height="376" viewBox="0 0 694 376" fill="none" xmlns="http://www.w3.org/2000/svg">
<g opacity="0.15">
<path fill-rule="evenodd" clip-rule="evenodd" d="M73.9219 357.33L86.6587 350.18H72.7703L52.3358 361.644H62.9086L50.1717 368.794H60.7368L48 375.944H61.8884L82.3229 364.471H71.7501L84.4869 357.33H73.9219Z" fill="white"/>
<path fill-rule="evenodd" clip-rule="evenodd" d="M25.9219 357.33L38.6587 350.18H24.7703L4.33577 361.644H14.9086L2.17175 368.794H12.7368L0 375.944H13.8884L34.3229 364.471H23.7501L36.4869 357.33H25.9219Z" fill="white"/>
<path fill-rule="evenodd" clip-rule="evenodd" d="M116.398 357.33L129.135 350.18H115.246L94.8118 361.644H105.385L92.6478 368.794H103.221L90.4761 375.944H104.364L124.799 364.471H114.226L126.971 357.33H116.398Z" fill="white"/>
<path fill-rule="evenodd" clip-rule="evenodd" d="M158.874 357.33L171.618 350.18H157.73L137.295 361.644H147.861L135.124 368.794H145.697L132.96 375.944H146.84L167.275 364.471H156.71L169.447 357.33H158.874Z" fill="white"/>
</g>
<g opacity="0.1">
<path fill-rule="evenodd" clip-rule="evenodd" d="M73.9216 313.223L86.6584 306.073H72.7701L52.3355 317.538H62.9083L50.1715 324.688H60.7366L47.9998 331.829H61.8881L82.3227 320.364H71.7499L84.4867 313.223H73.9216Z" fill="white"/>
<path fill-rule="evenodd" clip-rule="evenodd" d="M116.398 313.223L129.135 306.073H115.246L94.8118 317.538H105.385L92.6478 324.688H103.221L90.4761 331.829H104.364L124.799 320.364H114.226L126.971 313.223H116.398Z" fill="white"/>
<path fill-rule="evenodd" clip-rule="evenodd" d="M158.874 313.223L171.618 306.073H157.73L137.295 317.538H147.861L135.124 324.688H145.697L132.96 331.829H146.84L167.275 320.364H156.71L169.447 313.223H158.874Z" fill="white"/>
</g>
<path opacity="0.1" fill-rule="evenodd" clip-rule="evenodd" d="M158.874 269.109L171.618 261.968H157.73L137.295 273.432H147.861L135.124 280.573H145.697L132.96 287.723H146.84L167.275 276.259H156.71L169.447 269.109H158.874Z" fill="white"/>
<g opacity="0.15">
<path fill-rule="evenodd" clip-rule="evenodd" d="M204.457 357.33L217.202 350.18H203.313L182.879 361.644H193.452L180.707 368.794H191.28L178.543 375.944H192.431L212.866 364.471H202.293L215.03 357.33H204.457Z" fill="white"/>
<path fill-rule="evenodd" clip-rule="evenodd" d="M246.941 357.33L259.678 350.18H245.789L225.355 361.644H235.928L223.191 368.794H233.756L221.019 375.944H234.907L255.342 364.471H244.769L257.506 357.33H246.941Z" fill="white"/>
<path fill-rule="evenodd" clip-rule="evenodd" d="M289.417 357.33L302.154 350.18H288.273L267.838 361.644H278.404L265.667 368.794H276.239L263.503 375.944H277.383L297.818 364.471H287.253L299.99 357.33H289.417Z" fill="white"/>
</g>
<g opacity="0.15">
<path fill-rule="evenodd" clip-rule="evenodd" d="M204.457 313.223L217.202 306.073H203.313L182.879 317.538H193.452L180.707 324.688H191.28L178.543 331.829H192.431L212.866 320.364H202.293L215.03 313.223H204.457Z" fill="white"/>
<path fill-rule="evenodd" clip-rule="evenodd" d="M246.941 313.223L259.678 306.073H245.79L225.355 317.538H235.928L223.191 324.688H233.756L221.019 331.829H234.908L255.342 320.364H244.769L257.506 313.223H246.941Z" fill="white"/>
<path fill-rule="evenodd" clip-rule="evenodd" d="M289.417 313.223L302.154 306.073H288.273L267.839 317.538H278.404L265.667 324.688H276.24L263.503 331.829H277.384L297.818 320.364H287.253L299.99 313.223H289.417Z" fill="white"/>
</g>
<g opacity="0.1">
<path fill-rule="evenodd" clip-rule="evenodd" d="M204.457 269.109L217.202 261.968H203.313L182.879 273.432H193.452L180.707 280.573H191.28L178.543 287.723H192.431L212.866 276.259H202.293L215.03 269.109H204.457Z" fill="white"/>
<path fill-rule="evenodd" clip-rule="evenodd" d="M246.941 269.109L259.678 261.968H245.789L225.355 273.432H235.928L223.191 280.573H233.756L221.019 287.723H234.907L255.342 276.259H244.769L257.506 269.109H246.941Z" fill="white"/>
<path fill-rule="evenodd" clip-rule="evenodd" d="M289.417 269.109L302.154 261.968H288.273L267.838 273.432H278.404L265.667 280.573H276.239L263.503 287.723H277.383L297.818 276.259H287.253L299.99 269.109H289.417Z" fill="white"/>
</g>
<g opacity="0.2">
<path fill-rule="evenodd" clip-rule="evenodd" d="M335.002 357.33L347.747 350.18H333.858L313.424 361.644H323.989L311.252 368.794H321.825L309.088 375.944H322.969L343.403 364.471H332.838L345.575 357.33H335.002Z" fill="white"/>
<path fill-rule="evenodd" clip-rule="evenodd" d="M377.486 357.33L390.223 350.18H376.334L355.9 361.644H366.473L353.736 368.794H364.301L351.564 375.944H365.452L385.887 364.471H375.314L388.051 357.33H377.486Z" fill="white"/>
<path fill-rule="evenodd" clip-rule="evenodd" d="M419.965 357.33L432.701 350.18H418.813L398.379 361.644H408.951L396.214 368.794H406.787L394.043 375.944H407.931L428.366 364.471H417.793L430.537 357.33H419.965Z" fill="white"/>
</g>
<g opacity="0.15">
<path fill-rule="evenodd" clip-rule="evenodd" d="M335.002 313.223L347.746 306.073H333.858L313.423 317.538H323.988L311.252 324.688H321.824L309.088 331.829H322.968L343.403 320.364H332.838L345.575 313.223H335.002Z" fill="white"/>
<path fill-rule="evenodd" clip-rule="evenodd" d="M377.486 313.223L390.223 306.073H376.334L355.9 317.538H366.473L353.736 324.688H364.301L351.564 331.829H365.452L385.887 320.364H375.314L388.051 313.223H377.486Z" fill="white"/>
<path fill-rule="evenodd" clip-rule="evenodd" d="M419.964 313.223L432.701 306.073H418.813L398.378 317.538H408.951L396.214 324.688H406.787L394.042 331.829H407.931L428.365 320.364H417.793L430.537 313.223H419.964Z" fill="white"/>
</g>
<g opacity="0.15">
<path fill-rule="evenodd" clip-rule="evenodd" d="M335.002 269.109L347.747 261.968H333.858L313.424 273.432H323.989L311.252 280.573H321.825L309.088 287.723H322.969L343.403 276.259H332.838L345.575 269.109H335.002Z" fill="white"/>
<path fill-rule="evenodd" clip-rule="evenodd" d="M377.486 269.109L390.223 261.968H376.334L355.9 273.432H366.473L353.736 280.573H364.301L351.564 287.723H365.452L385.887 276.259H375.314L388.051 269.109H377.486Z" fill="white"/>
<path fill-rule="evenodd" clip-rule="evenodd" d="M419.965 269.109L432.701 261.968H418.813L398.379 273.432H408.951L396.214 280.573H406.787L394.043 287.723H407.931L428.366 276.259H417.793L430.537 269.109H419.965Z" fill="white"/>
</g>
<g opacity="0.2">
<path fill-rule="evenodd" clip-rule="evenodd" d="M465.548 357.33L478.285 350.18H464.404L443.97 361.644H454.535L441.798 368.794H452.371L439.634 375.944H453.515L473.949 364.471H463.384L476.121 357.33H465.548Z" fill="white"/>
<path fill-rule="evenodd" clip-rule="evenodd" d="M508.032 357.33L520.769 350.18H506.88L486.446 361.644H497.019L484.274 368.794H494.847L482.11 375.944H495.998L516.433 364.471H505.86L518.597 357.33H508.032Z" fill="white"/>
<path fill-rule="evenodd" clip-rule="evenodd" d="M550.509 357.33L563.246 350.18H549.358L528.923 361.644H539.496L526.759 368.794H537.324L524.588 375.944H538.476L558.911 364.471H548.338L561.082 357.33H550.509Z" fill="white"/>
</g>
<g opacity="0.2">
<path fill-rule="evenodd" clip-rule="evenodd" d="M465.548 313.223L478.285 306.073H464.404L443.97 317.538H454.535L441.798 324.688H452.371L439.634 331.829H453.515L473.949 320.364H463.384L476.121 313.223H465.548Z" fill="white"/>
<path fill-rule="evenodd" clip-rule="evenodd" d="M508.032 313.223L520.769 306.073H506.88L486.446 317.538H497.019L484.274 324.688H494.847L482.11 331.829H495.998L516.433 320.364H505.86L518.597 313.223H508.032Z" fill="white"/>
<path fill-rule="evenodd" clip-rule="evenodd" d="M550.509 313.223L563.246 306.073H549.358L528.923 317.538H539.496L526.759 324.688H537.324L524.588 331.829H538.476L558.911 320.364H548.338L561.082 313.223H550.509Z" fill="white"/>
</g>
<g opacity="0.15">
<path fill-rule="evenodd" clip-rule="evenodd" d="M465.548 269.109L478.285 261.968H464.404L443.97 273.432H454.535L441.798 280.573H452.371L439.634 287.723H453.515L473.949 276.259H463.384L476.121 269.109H465.548Z" fill="white"/>
<path fill-rule="evenodd" clip-rule="evenodd" d="M508.032 269.109L520.769 261.968H506.88L486.446 273.432H497.019L484.274 280.573H494.847L482.11 287.723H495.998L516.433 276.259H505.86L518.597 269.109H508.032Z" fill="white"/>
<path fill-rule="evenodd" clip-rule="evenodd" d="M550.509 269.109L563.246 261.968H549.358L528.923 273.432H539.496L526.759 280.573H537.324L524.588 287.723H538.476L558.911 276.259H548.338L561.082 269.109H550.509Z" fill="white"/>
</g>
<g opacity="0.25">
<path fill-rule="evenodd" clip-rule="evenodd" d="M596.091 357.33L608.828 350.18H594.939L574.505 361.644H585.077L572.341 368.794H582.913L570.169 375.944H584.057L604.492 364.471H593.919L606.664 357.33H596.091Z" fill="white"/>
<path fill-rule="evenodd" clip-rule="evenodd" d="M638.567 357.33L651.311 350.18H637.423L616.988 361.644H627.553L614.817 368.794H625.389L612.653 375.944H626.533L646.968 364.471H636.403L649.14 357.33H638.567Z" fill="white"/>
<path fill-rule="evenodd" clip-rule="evenodd" d="M681.051 357.33L693.787 350.18H679.899L659.464 361.644H670.037L657.3 368.794H667.865L655.129 375.944H669.017L689.452 364.471H678.879L691.616 357.33H681.051Z" fill="white"/>
</g>
<g opacity="0.2">
<path fill-rule="evenodd" clip-rule="evenodd" d="M596.091 313.223L608.828 306.073H594.939L574.505 317.538H585.077L572.341 324.688H582.913L570.169 331.829H584.057L604.492 320.364H593.919L606.664 313.223H596.091Z" fill="white"/>
<path fill-rule="evenodd" clip-rule="evenodd" d="M638.567 313.223L651.311 306.073H637.423L616.988 317.538H627.553L614.817 324.688H625.389L612.653 331.829H626.533L646.968 320.364H636.403L649.14 313.223H638.567Z" fill="white"/>
<path fill-rule="evenodd" clip-rule="evenodd" d="M681.051 313.223L693.787 306.073H679.899L659.464 317.538H670.037L657.3 324.688H667.865L655.129 331.829H669.017L689.452 320.364H678.879L691.616 313.223H681.051Z" fill="white"/>
</g>
<g opacity="0.2">
<path fill-rule="evenodd" clip-rule="evenodd" d="M596.091 269.109L608.828 261.968H594.939L574.505 273.432H585.077L572.341 280.573H582.913L570.169 287.723H584.057L604.492 276.259H593.919L606.664 269.109H596.091Z" fill="white"/>
<path fill-rule="evenodd" clip-rule="evenodd" d="M638.567 269.109L651.311 261.968H637.423L616.988 273.432H627.553L614.817 280.573H625.389L612.653 287.723H626.533L646.968 276.259H636.403L649.14 269.109H638.567Z" fill="white"/>
<path fill-rule="evenodd" clip-rule="evenodd" d="M681.051 269.109L693.787 261.968H679.899L659.464 273.432H670.037L657.3 280.573H667.865L655.129 287.723H669.017L689.452 276.259H678.879L691.616 269.109H681.051Z" fill="white"/>
</g>
<path opacity="0.1" fill-rule="evenodd" clip-rule="evenodd" d="M246.943 227.336L259.68 220.187H245.791L225.357 231.66H235.93L223.193 238.801H233.758L221.021 245.951H234.909L255.344 234.486H244.771L257.508 227.336H246.943Z" fill="white"/>
<path opacity="0.1" fill-rule="evenodd" clip-rule="evenodd" d="M289.42 227.336L302.157 220.187H288.276L267.842 231.66H278.407L265.67 238.801H276.243L263.506 245.951H277.386L297.821 234.486H287.256L299.993 227.336H289.42Z" fill="white"/>
<g opacity="0.1">
<path fill-rule="evenodd" clip-rule="evenodd" d="M335.002 227.336L347.746 220.187H333.858L313.423 231.66H323.988L311.252 238.801H321.824L309.088 245.951H322.968L343.403 234.486H332.838L345.575 227.336H335.002Z" fill="white"/>
<path fill-rule="evenodd" clip-rule="evenodd" d="M377.486 227.336L390.223 220.187H376.334L355.9 231.66H366.473L353.736 238.801H364.301L351.564 245.951H365.452L385.887 234.486H375.314L388.051 227.336H377.486Z" fill="white"/>
<path fill-rule="evenodd" clip-rule="evenodd" d="M419.963 227.336L432.7 220.187H418.812L398.377 231.66H408.95L396.213 238.801H406.786L394.041 245.951H407.93L428.364 234.486H417.791L430.536 227.336H419.963Z" fill="white"/>
</g>
<g opacity="0.1">
<path fill-rule="evenodd" clip-rule="evenodd" d="M335.002 183.231L347.746 176.081H333.858L313.423 187.546H323.988L311.252 194.696H321.824L309.088 201.846H322.968L343.403 190.381H332.838L345.575 183.231H335.002Z" fill="white"/>
<path fill-rule="evenodd" clip-rule="evenodd" d="M377.486 183.231L390.223 176.081H376.334L355.9 187.546H366.473L353.736 194.696H364.301L351.564 201.846H365.452L385.887 190.381H375.314L388.051 183.231H377.486Z" fill="white"/>
<path fill-rule="evenodd" clip-rule="evenodd" d="M419.963 183.231L432.7 176.081H418.812L398.377 187.546H408.95L396.213 194.696H406.786L394.041 201.846H407.93L428.364 190.381H417.791L430.536 183.231H419.963Z" fill="white"/>
</g>
<path opacity="0.1" fill-rule="evenodd" clip-rule="evenodd" d="M419.963 139.125L432.7 131.975H418.812L398.377 143.439H408.95L396.213 150.589H406.786L394.041 157.739H407.93L428.364 146.266H417.791L430.536 139.125H419.963Z" fill="white"/>
<g opacity="0.15">
<path fill-rule="evenodd" clip-rule="evenodd" d="M465.548 227.337L478.285 220.188H464.404L443.97 231.661H454.535L441.798 238.802H452.371L439.634 245.952H453.515L473.949 234.487H463.384L476.121 227.337H465.548Z" fill="white"/>
<path fill-rule="evenodd" clip-rule="evenodd" d="M508.032 227.337L520.769 220.188H506.88L486.446 231.661H497.019L484.274 238.802H494.847L482.11 245.952H495.998L516.433 234.487H505.86L518.597 227.337H508.032Z" fill="white"/>
<path fill-rule="evenodd" clip-rule="evenodd" d="M550.509 227.337L563.246 220.188H549.358L528.923 231.661H539.496L526.759 238.802H537.324L524.588 245.952H538.476L558.911 234.487H548.338L561.082 227.337H550.509Z" fill="white"/>
</g>
<g opacity="0.15">
<path fill-rule="evenodd" clip-rule="evenodd" d="M465.548 183.231L478.285 176.081H464.404L443.97 187.546H454.535L441.798 194.696H452.371L439.634 201.846H453.515L473.949 190.381H463.384L476.121 183.231H465.548Z" fill="white"/>
<path fill-rule="evenodd" clip-rule="evenodd" d="M508.032 183.231L520.769 176.081H506.88L486.446 187.546H497.019L484.274 194.696H494.847L482.11 201.846H495.998L516.433 190.381H505.86L518.597 183.231H508.032Z" fill="white"/>
<path fill-rule="evenodd" clip-rule="evenodd" d="M550.509 183.231L563.246 176.081H549.358L528.923 187.546H539.496L526.759 194.696H537.324L524.588 201.846H538.476L558.911 190.381H548.338L561.082 183.231H550.509Z" fill="white"/>
</g>
<g opacity="0.1">
<path fill-rule="evenodd" clip-rule="evenodd" d="M465.548 139.124L478.285 131.974H464.404L443.97 143.438H454.535L441.798 150.588H452.371L439.634 157.738H453.515L473.949 146.265H463.384L476.121 139.124H465.548Z" fill="white"/>
<path fill-rule="evenodd" clip-rule="evenodd" d="M508.032 139.124L520.769 131.974H506.88L486.446 143.438H497.019L484.274 150.588H494.847L482.11 157.738H495.998L516.433 146.265H505.86L518.597 139.124H508.032Z" fill="white"/>
<path fill-rule="evenodd" clip-rule="evenodd" d="M550.509 139.124L563.246 131.974H549.358L528.923 143.438H539.496L526.759 150.588H537.324L524.588 157.738H538.476L558.911 146.265H548.338L561.082 139.124H550.509Z" fill="white"/>
</g>
<g opacity="0.2">
<path fill-rule="evenodd" clip-rule="evenodd" d="M596.091 227.337L608.828 220.188H594.939L574.505 231.661H585.077L572.341 238.802H582.913L570.169 245.952H584.057L604.492 234.487H593.919L606.664 227.337H596.091Z" fill="white"/>
<path fill-rule="evenodd" clip-rule="evenodd" d="M638.567 227.337L651.311 220.188H637.423L616.988 231.661H627.553L614.817 238.802H625.389L612.653 245.952H626.533L646.968 234.487H636.403L649.14 227.337H638.567Z" fill="white"/>
<path fill-rule="evenodd" clip-rule="evenodd" d="M681.051 227.337L693.787 220.188H679.899L659.464 231.661H670.037L657.3 238.802H667.865L655.129 245.952H669.017L689.452 234.487H678.879L691.616 227.337H681.051Z" fill="white"/>
</g>
<g opacity="0.15">
<path fill-rule="evenodd" clip-rule="evenodd" d="M596.091 183.231L608.828 176.081H594.939L574.505 187.546H585.077L572.341 194.696H582.913L570.169 201.846H584.057L604.492 190.381H593.919L606.664 183.231H596.091Z" fill="white"/>
<path fill-rule="evenodd" clip-rule="evenodd" d="M638.567 183.231L651.311 176.081H637.423L616.988 187.546H627.553L614.817 194.696H625.389L612.653 201.846H626.533L646.968 190.381H636.403L649.14 183.231H638.567Z" fill="white"/>
<path fill-rule="evenodd" clip-rule="evenodd" d="M681.051 183.231L693.787 176.081H679.899L659.464 187.546H670.037L657.3 194.696H667.865L655.129 201.846H669.017L689.452 190.381H678.879L691.616 183.231H681.051Z" fill="white"/>
</g>
<g opacity="0.15">
<path fill-rule="evenodd" clip-rule="evenodd" d="M596.091 139.124L608.828 131.974H594.939L574.505 143.438H585.077L572.341 150.588H582.913L570.169 157.738H584.057L604.492 146.265H593.919L606.664 139.124H596.091Z" fill="white"/>
<path fill-rule="evenodd" clip-rule="evenodd" d="M638.567 139.124L651.311 131.974H637.423L616.988 143.438H627.553L614.817 150.588H625.389L612.653 157.738H626.533L646.968 146.265H636.403L649.14 139.124H638.567Z" fill="white"/>
<path fill-rule="evenodd" clip-rule="evenodd" d="M681.051 139.124L693.787 131.974H679.899L659.464 143.438H670.037L657.3 150.588H667.865L655.129 157.738H669.017L689.452 146.265H678.879L691.616 139.124H681.051Z" fill="white"/>
</g>
<path opacity="0.1" fill-rule="evenodd" clip-rule="evenodd" d="M508.032 95.3628L520.769 88.2129H506.88L486.446 99.6863H497.019L484.274 106.827H494.847L482.11 113.977H495.998L516.433 102.513H505.86L518.597 95.3628H508.032Z" fill="white"/>
<path opacity="0.1" fill-rule="evenodd" clip-rule="evenodd" d="M550.508 95.3628L563.245 88.2129H549.356L528.922 99.6863H539.495L526.758 106.827H537.323L524.586 113.977H538.475L558.909 102.513H548.336L561.081 95.3628H550.508Z" fill="white"/>
<path opacity="0.1" fill-rule="evenodd" clip-rule="evenodd" d="M596.09 95.3628L608.827 88.2129H594.938L574.504 99.6863H585.077L572.34 106.827H582.913L570.168 113.977H584.057L604.491 102.513H593.918L606.663 95.3628H596.09Z" fill="white"/>
<path opacity="0.15" fill-rule="evenodd" clip-rule="evenodd" d="M638.568 95.3628L651.313 88.2129H637.425L616.99 99.6863H627.555L614.818 106.827H625.391L612.654 113.977H626.535L646.969 102.513H636.404L649.141 95.3628H638.568Z" fill="white"/>
<path opacity="0.15" fill-rule="evenodd" clip-rule="evenodd" d="M681.052 95.3628L693.789 88.2129H679.901L659.466 99.6863H670.039L657.302 106.827H667.867L655.13 113.977H669.019L689.453 102.513H678.88L691.617 95.3628H681.052Z" fill="white"/>
<path opacity="0.1" fill-rule="evenodd" clip-rule="evenodd" d="M596.09 51.2564L608.827 44.1064H594.938L574.504 55.571H585.077L572.34 62.721H582.913L570.168 69.8709H584.057L604.491 58.4063H593.918L606.663 51.2564H596.09Z" fill="white"/>
<path opacity="0.1" fill-rule="evenodd" clip-rule="evenodd" d="M638.568 51.2564L651.313 44.1064H637.425L616.99 55.571H627.555L614.818 62.721H625.391L612.654 69.8709H626.535L646.969 58.4063H636.404L649.141 51.2564H638.568Z" fill="white"/>
<path opacity="0.15" fill-rule="evenodd" clip-rule="evenodd" d="M681.052 51.2564L693.789 44.1064H679.901L659.466 55.571H670.039L657.302 62.721H667.867L655.13 69.8709H669.019L689.453 58.4063H678.88L691.617 51.2564H681.052Z" fill="white"/>
<path opacity="0.1" fill-rule="evenodd" clip-rule="evenodd" d="M681.052 7.14995L693.789 0H679.901L659.466 11.4646H670.039L657.302 18.6145H667.867L655.13 25.7645H669.019L689.453 14.2911H678.88L691.617 7.14995H681.052Z" fill="white"/>
</svg>
