<svg width="91" height="91" viewBox="0 0 91 91" fill="none" xmlns="http://www.w3.org/2000/svg">
<g clip-path="url(#clip0_44_5589)">
<path d="M76.5649 8.03842H72.0028V6.52728C72.0028 2.92573 69.0678 0 65.4644 0C61.8609 0 58.926 2.92993 58.926 6.52728V8.04682L32.0786 8.16016V6.52728C32.0786 2.92573 29.1437 0 25.5403 0C21.9368 0 19.0019 2.92993 19.0019 6.52728V8.03842H14.4397C6.85433 8.03842 0.446289 14.5867 0.446289 22.3397V77.0303C0.446289 84.733 6.72398 91 14.4397 91H76.5649C84.2806 91 90.5583 84.733 90.5583 77.0303V22.3397C90.5583 14.5867 84.1503 8.03842 76.5649 8.03842ZM76.5649 87.218H14.4397C8.80954 87.218 4.23057 82.6468 4.23057 77.0262V30.0759H13.0942C14.1412 30.0759 14.9863 29.2322 14.9863 28.187C14.9863 27.1418 14.1412 26.298 13.0942 26.298H4.23057V22.3397C4.23057 16.6351 8.90625 11.8163 14.4397 11.8163H19.0019V13.3274C19.0019 16.929 21.9368 19.8547 25.5403 19.8547C26.5872 19.8547 27.4324 19.011 27.4324 17.9658C27.4324 16.9206 26.5872 16.0768 25.5403 16.0768C24.0223 16.0768 22.7861 14.8428 22.7861 13.3274V6.52728C22.7861 5.01195 24.0223 3.77785 25.5403 3.77785C27.0582 3.77785 28.2944 5.01195 28.2944 6.52728V8.17695L26.768 8.18534C25.7253 8.18954 24.8801 9.03746 24.8843 10.0827C24.8885 11.1237 25.7337 11.9632 26.7764 11.9632H26.7849L58.926 11.8247V13.3274C58.926 16.929 61.8609 19.8547 65.4644 19.8547C66.5114 19.8547 67.3565 19.011 67.3565 17.9658C67.3565 16.9206 66.5114 16.0768 65.4644 16.0768C63.9465 16.0768 62.7103 14.8428 62.7103 13.3274V6.52728C62.7103 5.01195 63.9465 3.77785 65.4644 3.77785C66.9823 3.77785 68.2185 5.01195 68.2185 6.52728V8.03842H66.7216C65.6746 8.03842 64.8295 8.88214 64.8295 9.92735C64.8295 10.9726 65.6746 11.8163 66.7216 11.8163H76.5649C82.0984 11.8163 86.7741 16.6351 86.7741 22.3397V26.298H21.5499C20.503 26.298 19.6578 27.1418 19.6578 28.187C19.6578 29.2322 20.503 30.0759 21.5499 30.0759H86.7699V77.0303C86.7699 82.6509 82.1909 87.2221 76.5607 87.2221L76.5649 87.218Z" fill="white"/>
<path d="M25.4565 42.1436H21.5376C20.4907 42.1436 19.6455 42.9873 19.6455 44.0325C19.6455 45.0777 20.4907 45.9214 21.5376 45.9214H25.4565C26.5035 45.9214 27.3486 45.0777 27.3486 44.0325C27.3486 42.9873 26.5035 42.1436 25.4565 42.1436Z" fill="white"/>
<path d="M40.7576 42.1436H36.8345C35.7875 42.1436 34.9424 42.9873 34.9424 44.0325C34.9424 45.0777 35.7875 45.9214 36.8345 45.9214H40.7576C41.8045 45.9214 42.6497 45.0777 42.6497 44.0325C42.6497 42.9873 41.8045 42.1436 40.7576 42.1436Z" fill="white"/>
<path d="M56.0629 42.1436H52.1441C51.0971 42.1436 50.252 42.9873 50.252 44.0325C50.252 45.0777 51.0971 45.9214 52.1441 45.9214H56.0629C57.1099 45.9214 57.9551 45.0777 57.9551 44.0325C57.9551 42.9873 57.1099 42.1436 56.0629 42.1436Z" fill="white"/>
<path d="M71.3679 42.1436H67.4449C66.3979 42.1436 65.5527 42.9873 65.5527 44.0325C65.5527 45.0777 66.3979 45.9214 67.4449 45.9214H71.3679C72.4149 45.9214 73.26 45.0777 73.26 44.0325C73.26 42.9873 72.4149 42.1436 71.3679 42.1436Z" fill="white"/>
<path d="M25.4565 51.5215H21.5376C20.4907 51.5215 19.6455 52.3652 19.6455 53.4104C19.6455 54.4556 20.4907 55.2993 21.5376 55.2993H25.4565C26.5035 55.2993 27.3486 54.4556 27.3486 53.4104C27.3486 52.3652 26.5035 51.5215 25.4565 51.5215Z" fill="white"/>
<path d="M40.7576 51.5215H36.8345C35.7875 51.5215 34.9424 52.3652 34.9424 53.4104C34.9424 54.4556 35.7875 55.2993 36.8345 55.2993H40.7576C41.8045 55.2993 42.6497 54.4556 42.6497 53.4104C42.6497 52.3652 41.8045 51.5215 40.7576 51.5215Z" fill="white"/>
<path d="M56.0629 51.5215H52.1441C51.0971 51.5215 50.252 52.3652 50.252 53.4104C50.252 54.4556 51.0971 55.2993 52.1441 55.2993H56.0629C57.1099 55.2993 57.9551 54.4556 57.9551 53.4104C57.9551 52.3652 57.1099 51.5215 56.0629 51.5215Z" fill="white"/>
<path d="M71.3679 51.5215H67.4449C66.3979 51.5215 65.5527 52.3652 65.5527 53.4104C65.5527 54.4556 66.3979 55.2993 67.4449 55.2993H71.3679C72.4149 55.2993 73.26 54.4556 73.26 53.4104C73.26 52.3652 72.4149 51.5215 71.3679 51.5215Z" fill="white"/>
<path d="M25.4565 60.8994H21.5376C20.4907 60.8994 19.6455 61.7431 19.6455 62.7883C19.6455 63.8335 20.4907 64.6773 21.5376 64.6773H25.4565C26.5035 64.6773 27.3486 63.8335 27.3486 62.7883C27.3486 61.7431 26.5035 60.8994 25.4565 60.8994Z" fill="white"/>
<path d="M40.7576 60.8994H36.8345C35.7875 60.8994 34.9424 61.7431 34.9424 62.7883C34.9424 63.8335 35.7875 64.6773 36.8345 64.6773H40.7576C41.8045 64.6773 42.6497 63.8335 42.6497 62.7883C42.6497 61.7431 41.8045 60.8994 40.7576 60.8994Z" fill="white"/>
<path d="M56.0629 60.8994H52.1441C51.0971 60.8994 50.252 61.7431 50.252 62.7883C50.252 63.8335 51.0971 64.6773 52.1441 64.6773H56.0629C57.1099 64.6773 57.9551 63.8335 57.9551 62.7883C57.9551 61.7431 57.1099 60.8994 56.0629 60.8994Z" fill="white"/>
<path d="M71.3679 60.8994H67.4449C66.3979 60.8994 65.5527 61.7431 65.5527 62.7883C65.5527 63.8335 66.3979 64.6773 67.4449 64.6773H71.3679C72.4149 64.6773 73.26 63.8335 73.26 62.7883C73.26 61.7431 72.4149 60.8994 71.3679 60.8994Z" fill="white"/>
<path d="M25.4565 70.2803H21.5376C20.4907 70.2803 19.6455 71.124 19.6455 72.1692C19.6455 73.2144 20.4907 74.0581 21.5376 74.0581H25.4565C26.5035 74.0581 27.3486 73.2144 27.3486 72.1692C27.3486 71.124 26.5035 70.2803 25.4565 70.2803Z" fill="white"/>
<path d="M40.7576 70.2803H36.8345C35.7875 70.2803 34.9424 71.124 34.9424 72.1692C34.9424 73.2144 35.7875 74.0581 36.8345 74.0581H40.7576C41.8045 74.0581 42.6497 73.2144 42.6497 72.1692C42.6497 71.124 41.8045 70.2803 40.7576 70.2803Z" fill="white"/>
</g>
<defs>
<clipPath id="clip0_44_5589">
<rect width="90.1078" height="91" fill="white" transform="translate(0.446289)"/>
</clipPath>
</defs>
</svg>
